<mxfile host="Electron" modified="2023-10-17T19:10:01.420Z" agent="Mozilla/5.0 (Windows NT 10.0; Win64; x64) AppleWebKit/537.36 (KHTML, like Gecko) draw.io/22.0.2 Chrome/114.0.5735.289 Electron/25.8.4 Safari/537.36" etag="101zNNGqcKMX6XPCXUKc" version="22.0.2" type="device">
  <diagram name="Page-1" id="gCEbrgKd8h_KMH39aeVV">
    <mxGraphModel dx="672" dy="662" grid="1" gridSize="10" guides="1" tooltips="1" connect="1" arrows="1" fold="1" page="1" pageScale="1" pageWidth="827" pageHeight="1169" math="0" shadow="0">
      <root>
        <mxCell id="0" />
        <mxCell id="1" parent="0" />
        <mxCell id="RutTHSJl229O0MzhaNBL-80" value="" style="shape=or;whiteSpace=wrap;html=1;rotation=-90;dashed=1;dashPattern=8 8;fillColor=#647687;fontColor=#ffffff;strokeColor=#314354;" vertex="1" parent="1">
          <mxGeometry x="190" y="111" width="80" height="19" as="geometry" />
        </mxCell>
        <mxCell id="RutTHSJl229O0MzhaNBL-81" value="" style="shape=or;whiteSpace=wrap;html=1;rotation=-90;dashed=1;dashPattern=8 8;fillColor=#647687;fontColor=#ffffff;strokeColor=#314354;" vertex="1" parent="1">
          <mxGeometry x="180" y="111" width="80" height="19" as="geometry" />
        </mxCell>
        <mxCell id="RutTHSJl229O0MzhaNBL-82" value="" style="shape=or;whiteSpace=wrap;html=1;rotation=-90;dashed=1;dashPattern=8 8;fillColor=#647687;fontColor=#ffffff;strokeColor=#314354;" vertex="1" parent="1">
          <mxGeometry x="170" y="111" width="80" height="19" as="geometry" />
        </mxCell>
        <mxCell id="RutTHSJl229O0MzhaNBL-83" value="" style="shape=or;whiteSpace=wrap;html=1;rotation=-90;dashed=1;dashPattern=8 8;fillColor=#647687;fontColor=#ffffff;strokeColor=#314354;" vertex="1" parent="1">
          <mxGeometry x="160" y="111" width="80" height="19" as="geometry" />
        </mxCell>
        <mxCell id="RutTHSJl229O0MzhaNBL-84" value="" style="endArrow=none;html=1;rounded=0;entryX=1;entryY=0.5;entryDx=0;entryDy=0;entryPerimeter=0;exitX=1;exitY=0.5;exitDx=0;exitDy=0;exitPerimeter=0;dashed=1;dashPattern=8 8;fillColor=#647687;strokeColor=#314354;" edge="1" parent="1" target="RutTHSJl229O0MzhaNBL-83">
          <mxGeometry width="50" height="50" relative="1" as="geometry">
            <mxPoint x="185" y="100" as="sourcePoint" />
            <mxPoint x="195" y="80" as="targetPoint" />
          </mxGeometry>
        </mxCell>
        <mxCell id="RutTHSJl229O0MzhaNBL-85" value="" style="endArrow=none;html=1;rounded=0;entryX=1;entryY=0.5;entryDx=0;entryDy=0;entryPerimeter=0;exitX=1;exitY=0.5;exitDx=0;exitDy=0;exitPerimeter=0;dashed=1;dashPattern=8 8;fillColor=#647687;strokeColor=#314354;" edge="1" parent="1" target="RutTHSJl229O0MzhaNBL-82">
          <mxGeometry width="50" height="50" relative="1" as="geometry">
            <mxPoint x="195" y="100" as="sourcePoint" />
            <mxPoint x="212.5" y="92" as="targetPoint" />
          </mxGeometry>
        </mxCell>
        <mxCell id="RutTHSJl229O0MzhaNBL-86" value="" style="endArrow=none;html=1;rounded=0;entryX=1;entryY=0.5;entryDx=0;entryDy=0;entryPerimeter=0;exitX=1;exitY=0.5;exitDx=0;exitDy=0;exitPerimeter=0;dashed=1;dashPattern=8 8;fillColor=#647687;strokeColor=#314354;" edge="1" parent="1" target="RutTHSJl229O0MzhaNBL-81">
          <mxGeometry width="50" height="50" relative="1" as="geometry">
            <mxPoint x="205" y="100" as="sourcePoint" />
            <mxPoint x="220" y="101" as="targetPoint" />
          </mxGeometry>
        </mxCell>
        <mxCell id="RutTHSJl229O0MzhaNBL-87" value="" style="endArrow=none;html=1;rounded=0;entryX=1;entryY=0.5;entryDx=0;entryDy=0;entryPerimeter=0;exitX=1;exitY=0.5;exitDx=0;exitDy=0;exitPerimeter=0;dashed=1;dashPattern=8 8;fillColor=#647687;strokeColor=#314354;" edge="1" parent="1" target="RutTHSJl229O0MzhaNBL-80">
          <mxGeometry width="50" height="50" relative="1" as="geometry">
            <mxPoint x="215" y="100" as="sourcePoint" />
            <mxPoint x="230" y="111" as="targetPoint" />
          </mxGeometry>
        </mxCell>
        <mxCell id="RutTHSJl229O0MzhaNBL-66" value="" style="shape=or;whiteSpace=wrap;html=1;rotation=-90;" vertex="1" parent="1">
          <mxGeometry x="175" y="130" width="80" height="19" as="geometry" />
        </mxCell>
        <mxCell id="RutTHSJl229O0MzhaNBL-65" value="" style="shape=or;whiteSpace=wrap;html=1;rotation=-90;" vertex="1" parent="1">
          <mxGeometry x="165" y="130" width="80" height="19" as="geometry" />
        </mxCell>
        <mxCell id="RutTHSJl229O0MzhaNBL-64" value="" style="shape=or;whiteSpace=wrap;html=1;rotation=-90;" vertex="1" parent="1">
          <mxGeometry x="155" y="130" width="80" height="19" as="geometry" />
        </mxCell>
        <mxCell id="RutTHSJl229O0MzhaNBL-63" value="" style="shape=or;whiteSpace=wrap;html=1;rotation=-90;" vertex="1" parent="1">
          <mxGeometry x="145" y="130" width="80" height="19" as="geometry" />
        </mxCell>
        <mxCell id="RutTHSJl229O0MzhaNBL-1" value="" style="endArrow=classic;html=1;rounded=0;" edge="1" parent="1">
          <mxGeometry width="50" height="50" relative="1" as="geometry">
            <mxPoint x="120" y="680" as="sourcePoint" />
            <mxPoint x="120" y="40" as="targetPoint" />
          </mxGeometry>
        </mxCell>
        <mxCell id="RutTHSJl229O0MzhaNBL-2" value="" style="endArrow=classic;html=1;rounded=0;" edge="1" parent="1">
          <mxGeometry width="50" height="50" relative="1" as="geometry">
            <mxPoint x="120" y="680" as="sourcePoint" />
            <mxPoint x="640" y="680" as="targetPoint" />
          </mxGeometry>
        </mxCell>
        <mxCell id="RutTHSJl229O0MzhaNBL-3" value="" style="endArrow=classic;html=1;rounded=0;" edge="1" parent="1">
          <mxGeometry width="50" height="50" relative="1" as="geometry">
            <mxPoint x="120" y="520" as="sourcePoint" />
            <mxPoint x="640" y="520" as="targetPoint" />
          </mxGeometry>
        </mxCell>
        <mxCell id="RutTHSJl229O0MzhaNBL-4" value="" style="endArrow=classic;html=1;rounded=0;" edge="1" parent="1">
          <mxGeometry width="50" height="50" relative="1" as="geometry">
            <mxPoint x="120" y="360" as="sourcePoint" />
            <mxPoint x="640" y="360" as="targetPoint" />
          </mxGeometry>
        </mxCell>
        <mxCell id="RutTHSJl229O0MzhaNBL-5" value="" style="endArrow=classic;html=1;rounded=0;" edge="1" parent="1">
          <mxGeometry width="50" height="50" relative="1" as="geometry">
            <mxPoint x="120" y="200" as="sourcePoint" />
            <mxPoint x="640" y="200" as="targetPoint" />
          </mxGeometry>
        </mxCell>
        <mxCell id="RutTHSJl229O0MzhaNBL-6" value="" style="shape=or;whiteSpace=wrap;html=1;rotation=-90;" vertex="1" parent="1">
          <mxGeometry x="130" y="149" width="80" height="19" as="geometry" />
        </mxCell>
        <mxCell id="RutTHSJl229O0MzhaNBL-7" value="" style="shape=or;whiteSpace=wrap;html=1;rotation=-90;" vertex="1" parent="1">
          <mxGeometry x="140" y="149" width="80" height="19" as="geometry" />
        </mxCell>
        <mxCell id="RutTHSJl229O0MzhaNBL-9" value="" style="shape=or;whiteSpace=wrap;html=1;rotation=-90;" vertex="1" parent="1">
          <mxGeometry x="150" y="149" width="80" height="19" as="geometry" />
        </mxCell>
        <mxCell id="RutTHSJl229O0MzhaNBL-10" value="" style="shape=or;whiteSpace=wrap;html=1;rotation=-90;" vertex="1" parent="1">
          <mxGeometry x="160" y="149" width="80" height="19" as="geometry" />
        </mxCell>
        <mxCell id="RutTHSJl229O0MzhaNBL-11" value="" style="endArrow=none;dashed=1;html=1;dashPattern=1 3;strokeWidth=2;rounded=0;" edge="1" parent="1">
          <mxGeometry width="50" height="50" relative="1" as="geometry">
            <mxPoint x="230" y="179" as="sourcePoint" />
            <mxPoint x="280" y="179.5" as="targetPoint" />
          </mxGeometry>
        </mxCell>
        <mxCell id="RutTHSJl229O0MzhaNBL-12" value="" style="shape=or;whiteSpace=wrap;html=1;rotation=-90;" vertex="1" parent="1">
          <mxGeometry x="260" y="149" width="80" height="19" as="geometry" />
        </mxCell>
        <mxCell id="RutTHSJl229O0MzhaNBL-13" value="" style="shape=or;whiteSpace=wrap;html=1;rotation=-90;" vertex="1" parent="1">
          <mxGeometry x="270" y="149" width="80" height="19" as="geometry" />
        </mxCell>
        <mxCell id="RutTHSJl229O0MzhaNBL-14" value="" style="shape=or;whiteSpace=wrap;html=1;rotation=-90;" vertex="1" parent="1">
          <mxGeometry x="280" y="149" width="80" height="19" as="geometry" />
        </mxCell>
        <mxCell id="RutTHSJl229O0MzhaNBL-15" value="" style="shape=or;whiteSpace=wrap;html=1;rotation=-90;" vertex="1" parent="1">
          <mxGeometry x="290" y="149" width="80" height="19" as="geometry" />
        </mxCell>
        <mxCell id="RutTHSJl229O0MzhaNBL-16" value="" style="shape=or;whiteSpace=wrap;html=1;rotation=-90;" vertex="1" parent="1">
          <mxGeometry x="505" y="149" width="80" height="19" as="geometry" />
        </mxCell>
        <mxCell id="RutTHSJl229O0MzhaNBL-17" value="" style="shape=or;whiteSpace=wrap;html=1;rotation=-90;" vertex="1" parent="1">
          <mxGeometry x="515" y="149" width="80" height="19" as="geometry" />
        </mxCell>
        <mxCell id="RutTHSJl229O0MzhaNBL-18" value="" style="shape=or;whiteSpace=wrap;html=1;rotation=-90;" vertex="1" parent="1">
          <mxGeometry x="525" y="149" width="80" height="19" as="geometry" />
        </mxCell>
        <mxCell id="RutTHSJl229O0MzhaNBL-19" value="" style="shape=or;whiteSpace=wrap;html=1;rotation=-90;" vertex="1" parent="1">
          <mxGeometry x="535" y="149" width="80" height="19" as="geometry" />
        </mxCell>
        <mxCell id="RutTHSJl229O0MzhaNBL-20" value="" style="endArrow=none;dashed=1;html=1;dashPattern=1 3;strokeWidth=2;rounded=0;" edge="1" parent="1">
          <mxGeometry width="50" height="50" relative="1" as="geometry">
            <mxPoint x="370" y="180" as="sourcePoint" />
            <mxPoint x="520" y="180" as="targetPoint" />
          </mxGeometry>
        </mxCell>
        <mxCell id="RutTHSJl229O0MzhaNBL-70" value="" style="endArrow=none;html=1;rounded=0;" edge="1" parent="1">
          <mxGeometry width="50" height="50" relative="1" as="geometry">
            <mxPoint x="210" y="199" as="sourcePoint" />
            <mxPoint x="225" y="179" as="targetPoint" />
          </mxGeometry>
        </mxCell>
        <mxCell id="RutTHSJl229O0MzhaNBL-71" value="" style="endArrow=none;html=1;rounded=0;entryX=1;entryY=0.5;entryDx=0;entryDy=0;entryPerimeter=0;exitX=1;exitY=0.5;exitDx=0;exitDy=0;exitPerimeter=0;" edge="1" parent="1" source="RutTHSJl229O0MzhaNBL-6" target="RutTHSJl229O0MzhaNBL-63">
          <mxGeometry width="50" height="50" relative="1" as="geometry">
            <mxPoint x="130" y="149" as="sourcePoint" />
            <mxPoint x="180" y="99" as="targetPoint" />
          </mxGeometry>
        </mxCell>
        <mxCell id="RutTHSJl229O0MzhaNBL-72" value="" style="endArrow=none;html=1;rounded=0;entryX=1;entryY=0.5;entryDx=0;entryDy=0;entryPerimeter=0;exitX=1;exitY=0.5;exitDx=0;exitDy=0;exitPerimeter=0;" edge="1" parent="1" source="RutTHSJl229O0MzhaNBL-7" target="RutTHSJl229O0MzhaNBL-64">
          <mxGeometry width="50" height="50" relative="1" as="geometry">
            <mxPoint x="182.5" y="130" as="sourcePoint" />
            <mxPoint x="197.5" y="111" as="targetPoint" />
          </mxGeometry>
        </mxCell>
        <mxCell id="RutTHSJl229O0MzhaNBL-73" value="" style="endArrow=none;html=1;rounded=0;entryX=1;entryY=0.5;entryDx=0;entryDy=0;entryPerimeter=0;exitX=1;exitY=0.5;exitDx=0;exitDy=0;exitPerimeter=0;" edge="1" parent="1" source="RutTHSJl229O0MzhaNBL-9" target="RutTHSJl229O0MzhaNBL-65">
          <mxGeometry width="50" height="50" relative="1" as="geometry">
            <mxPoint x="190" y="139" as="sourcePoint" />
            <mxPoint x="205" y="120" as="targetPoint" />
          </mxGeometry>
        </mxCell>
        <mxCell id="RutTHSJl229O0MzhaNBL-74" value="" style="endArrow=none;html=1;rounded=0;entryX=1;entryY=0.5;entryDx=0;entryDy=0;entryPerimeter=0;exitX=1;exitY=0.5;exitDx=0;exitDy=0;exitPerimeter=0;" edge="1" parent="1" source="RutTHSJl229O0MzhaNBL-10" target="RutTHSJl229O0MzhaNBL-66">
          <mxGeometry width="50" height="50" relative="1" as="geometry">
            <mxPoint x="200" y="149" as="sourcePoint" />
            <mxPoint x="215" y="130" as="targetPoint" />
          </mxGeometry>
        </mxCell>
        <mxCell id="RutTHSJl229O0MzhaNBL-88" value="" style="endArrow=none;html=1;rounded=0;exitX=-0.01;exitY=1.056;exitDx=0;exitDy=0;exitPerimeter=0;dashed=1;fillColor=#647687;strokeColor=#314354;dashPattern=8 8;" edge="1" parent="1" source="RutTHSJl229O0MzhaNBL-66">
          <mxGeometry width="50" height="50" relative="1" as="geometry">
            <mxPoint x="220" y="209" as="sourcePoint" />
            <mxPoint x="240" y="159" as="targetPoint" />
          </mxGeometry>
        </mxCell>
        <mxCell id="RutTHSJl229O0MzhaNBL-188" value="" style="shape=or;whiteSpace=wrap;html=1;rotation=-90;dashed=1;dashPattern=8 8;fillColor=#647687;fontColor=#ffffff;strokeColor=#314354;" vertex="1" parent="1">
          <mxGeometry x="320" y="110.75" width="80" height="19" as="geometry" />
        </mxCell>
        <mxCell id="RutTHSJl229O0MzhaNBL-189" value="" style="shape=or;whiteSpace=wrap;html=1;rotation=-90;dashed=1;dashPattern=8 8;fillColor=#647687;fontColor=#ffffff;strokeColor=#314354;" vertex="1" parent="1">
          <mxGeometry x="310" y="110.75" width="80" height="19" as="geometry" />
        </mxCell>
        <mxCell id="RutTHSJl229O0MzhaNBL-190" value="" style="shape=or;whiteSpace=wrap;html=1;rotation=-90;dashed=1;dashPattern=8 8;fillColor=#647687;fontColor=#ffffff;strokeColor=#314354;" vertex="1" parent="1">
          <mxGeometry x="300" y="110.75" width="80" height="19" as="geometry" />
        </mxCell>
        <mxCell id="RutTHSJl229O0MzhaNBL-191" value="" style="shape=or;whiteSpace=wrap;html=1;rotation=-90;dashed=1;dashPattern=8 8;fillColor=#647687;fontColor=#ffffff;strokeColor=#314354;" vertex="1" parent="1">
          <mxGeometry x="290" y="110.75" width="80" height="19" as="geometry" />
        </mxCell>
        <mxCell id="RutTHSJl229O0MzhaNBL-192" value="" style="endArrow=none;html=1;rounded=0;entryX=1;entryY=0.5;entryDx=0;entryDy=0;entryPerimeter=0;exitX=1;exitY=0.5;exitDx=0;exitDy=0;exitPerimeter=0;dashed=1;dashPattern=8 8;fillColor=#647687;strokeColor=#314354;" edge="1" parent="1" target="RutTHSJl229O0MzhaNBL-191">
          <mxGeometry width="50" height="50" relative="1" as="geometry">
            <mxPoint x="315" y="99.75" as="sourcePoint" />
            <mxPoint x="325" y="79.75" as="targetPoint" />
          </mxGeometry>
        </mxCell>
        <mxCell id="RutTHSJl229O0MzhaNBL-193" value="" style="endArrow=none;html=1;rounded=0;entryX=1;entryY=0.5;entryDx=0;entryDy=0;entryPerimeter=0;exitX=1;exitY=0.5;exitDx=0;exitDy=0;exitPerimeter=0;dashed=1;dashPattern=8 8;fillColor=#647687;strokeColor=#314354;" edge="1" parent="1" target="RutTHSJl229O0MzhaNBL-190">
          <mxGeometry width="50" height="50" relative="1" as="geometry">
            <mxPoint x="325" y="99.75" as="sourcePoint" />
            <mxPoint x="342.5" y="91.75" as="targetPoint" />
          </mxGeometry>
        </mxCell>
        <mxCell id="RutTHSJl229O0MzhaNBL-194" value="" style="endArrow=none;html=1;rounded=0;entryX=1;entryY=0.5;entryDx=0;entryDy=0;entryPerimeter=0;exitX=1;exitY=0.5;exitDx=0;exitDy=0;exitPerimeter=0;dashed=1;dashPattern=8 8;fillColor=#647687;strokeColor=#314354;" edge="1" parent="1" target="RutTHSJl229O0MzhaNBL-189">
          <mxGeometry width="50" height="50" relative="1" as="geometry">
            <mxPoint x="335" y="99.75" as="sourcePoint" />
            <mxPoint x="350" y="100.75" as="targetPoint" />
          </mxGeometry>
        </mxCell>
        <mxCell id="RutTHSJl229O0MzhaNBL-195" value="" style="endArrow=none;html=1;rounded=0;entryX=1;entryY=0.5;entryDx=0;entryDy=0;entryPerimeter=0;exitX=1;exitY=0.5;exitDx=0;exitDy=0;exitPerimeter=0;dashed=1;dashPattern=8 8;fillColor=#647687;strokeColor=#314354;" edge="1" parent="1" target="RutTHSJl229O0MzhaNBL-188">
          <mxGeometry width="50" height="50" relative="1" as="geometry">
            <mxPoint x="345" y="99.75" as="sourcePoint" />
            <mxPoint x="360" y="110.75" as="targetPoint" />
          </mxGeometry>
        </mxCell>
        <mxCell id="RutTHSJl229O0MzhaNBL-196" value="" style="shape=or;whiteSpace=wrap;html=1;rotation=-90;" vertex="1" parent="1">
          <mxGeometry x="305" y="129.75" width="80" height="19" as="geometry" />
        </mxCell>
        <mxCell id="RutTHSJl229O0MzhaNBL-197" value="" style="shape=or;whiteSpace=wrap;html=1;rotation=-90;" vertex="1" parent="1">
          <mxGeometry x="295" y="129.75" width="80" height="19" as="geometry" />
        </mxCell>
        <mxCell id="RutTHSJl229O0MzhaNBL-198" value="" style="shape=or;whiteSpace=wrap;html=1;rotation=-90;" vertex="1" parent="1">
          <mxGeometry x="285" y="129.75" width="80" height="19" as="geometry" />
        </mxCell>
        <mxCell id="RutTHSJl229O0MzhaNBL-199" value="" style="shape=or;whiteSpace=wrap;html=1;rotation=-90;" vertex="1" parent="1">
          <mxGeometry x="275" y="129.75" width="80" height="19" as="geometry" />
        </mxCell>
        <mxCell id="RutTHSJl229O0MzhaNBL-200" value="" style="shape=or;whiteSpace=wrap;html=1;rotation=-90;" vertex="1" parent="1">
          <mxGeometry x="260" y="148.75" width="80" height="19" as="geometry" />
        </mxCell>
        <mxCell id="RutTHSJl229O0MzhaNBL-201" value="" style="shape=or;whiteSpace=wrap;html=1;rotation=-90;" vertex="1" parent="1">
          <mxGeometry x="270" y="148.75" width="80" height="19" as="geometry" />
        </mxCell>
        <mxCell id="RutTHSJl229O0MzhaNBL-202" value="" style="shape=or;whiteSpace=wrap;html=1;rotation=-90;" vertex="1" parent="1">
          <mxGeometry x="280" y="148.75" width="80" height="19" as="geometry" />
        </mxCell>
        <mxCell id="RutTHSJl229O0MzhaNBL-203" value="" style="shape=or;whiteSpace=wrap;html=1;rotation=-90;" vertex="1" parent="1">
          <mxGeometry x="290" y="148.75" width="80" height="19" as="geometry" />
        </mxCell>
        <mxCell id="RutTHSJl229O0MzhaNBL-204" value="" style="endArrow=none;html=1;rounded=0;" edge="1" parent="1">
          <mxGeometry width="50" height="50" relative="1" as="geometry">
            <mxPoint x="340" y="198.75" as="sourcePoint" />
            <mxPoint x="355" y="178.75" as="targetPoint" />
          </mxGeometry>
        </mxCell>
        <mxCell id="RutTHSJl229O0MzhaNBL-205" value="" style="endArrow=none;html=1;rounded=0;entryX=1;entryY=0.5;entryDx=0;entryDy=0;entryPerimeter=0;exitX=1;exitY=0.5;exitDx=0;exitDy=0;exitPerimeter=0;" edge="1" parent="1" source="RutTHSJl229O0MzhaNBL-200" target="RutTHSJl229O0MzhaNBL-199">
          <mxGeometry width="50" height="50" relative="1" as="geometry">
            <mxPoint x="260" y="148.75" as="sourcePoint" />
            <mxPoint x="310" y="98.75" as="targetPoint" />
          </mxGeometry>
        </mxCell>
        <mxCell id="RutTHSJl229O0MzhaNBL-206" value="" style="endArrow=none;html=1;rounded=0;entryX=1;entryY=0.5;entryDx=0;entryDy=0;entryPerimeter=0;exitX=1;exitY=0.5;exitDx=0;exitDy=0;exitPerimeter=0;" edge="1" parent="1" source="RutTHSJl229O0MzhaNBL-201" target="RutTHSJl229O0MzhaNBL-198">
          <mxGeometry width="50" height="50" relative="1" as="geometry">
            <mxPoint x="312.5" y="129.75" as="sourcePoint" />
            <mxPoint x="327.5" y="110.75" as="targetPoint" />
          </mxGeometry>
        </mxCell>
        <mxCell id="RutTHSJl229O0MzhaNBL-207" value="" style="endArrow=none;html=1;rounded=0;entryX=1;entryY=0.5;entryDx=0;entryDy=0;entryPerimeter=0;exitX=1;exitY=0.5;exitDx=0;exitDy=0;exitPerimeter=0;" edge="1" parent="1" source="RutTHSJl229O0MzhaNBL-202" target="RutTHSJl229O0MzhaNBL-197">
          <mxGeometry width="50" height="50" relative="1" as="geometry">
            <mxPoint x="320" y="138.75" as="sourcePoint" />
            <mxPoint x="335" y="119.75" as="targetPoint" />
          </mxGeometry>
        </mxCell>
        <mxCell id="RutTHSJl229O0MzhaNBL-208" value="" style="endArrow=none;html=1;rounded=0;entryX=1;entryY=0.5;entryDx=0;entryDy=0;entryPerimeter=0;exitX=1;exitY=0.5;exitDx=0;exitDy=0;exitPerimeter=0;" edge="1" parent="1" source="RutTHSJl229O0MzhaNBL-203" target="RutTHSJl229O0MzhaNBL-196">
          <mxGeometry width="50" height="50" relative="1" as="geometry">
            <mxPoint x="330" y="148.75" as="sourcePoint" />
            <mxPoint x="345" y="129.75" as="targetPoint" />
          </mxGeometry>
        </mxCell>
        <mxCell id="RutTHSJl229O0MzhaNBL-209" value="" style="endArrow=none;html=1;rounded=0;exitX=-0.01;exitY=1.056;exitDx=0;exitDy=0;exitPerimeter=0;dashed=1;fillColor=#647687;strokeColor=#314354;dashPattern=8 8;" edge="1" parent="1" source="RutTHSJl229O0MzhaNBL-196">
          <mxGeometry width="50" height="50" relative="1" as="geometry">
            <mxPoint x="350" y="208.75" as="sourcePoint" />
            <mxPoint x="370" y="158.75" as="targetPoint" />
          </mxGeometry>
        </mxCell>
        <mxCell id="RutTHSJl229O0MzhaNBL-210" value="" style="shape=or;whiteSpace=wrap;html=1;rotation=-90;dashed=1;dashPattern=8 8;fillColor=#647687;fontColor=#ffffff;strokeColor=#314354;" vertex="1" parent="1">
          <mxGeometry x="565" y="110.5" width="80" height="19" as="geometry" />
        </mxCell>
        <mxCell id="RutTHSJl229O0MzhaNBL-211" value="" style="shape=or;whiteSpace=wrap;html=1;rotation=-90;dashed=1;dashPattern=8 8;fillColor=#647687;fontColor=#ffffff;strokeColor=#314354;" vertex="1" parent="1">
          <mxGeometry x="555" y="110.5" width="80" height="19" as="geometry" />
        </mxCell>
        <mxCell id="RutTHSJl229O0MzhaNBL-212" value="" style="shape=or;whiteSpace=wrap;html=1;rotation=-90;dashed=1;dashPattern=8 8;fillColor=#647687;fontColor=#ffffff;strokeColor=#314354;" vertex="1" parent="1">
          <mxGeometry x="545" y="110.5" width="80" height="19" as="geometry" />
        </mxCell>
        <mxCell id="RutTHSJl229O0MzhaNBL-213" value="" style="shape=or;whiteSpace=wrap;html=1;rotation=-90;dashed=1;dashPattern=8 8;fillColor=#647687;fontColor=#ffffff;strokeColor=#314354;" vertex="1" parent="1">
          <mxGeometry x="535" y="110.5" width="80" height="19" as="geometry" />
        </mxCell>
        <mxCell id="RutTHSJl229O0MzhaNBL-214" value="" style="endArrow=none;html=1;rounded=0;entryX=1;entryY=0.5;entryDx=0;entryDy=0;entryPerimeter=0;exitX=1;exitY=0.5;exitDx=0;exitDy=0;exitPerimeter=0;dashed=1;dashPattern=8 8;fillColor=#647687;strokeColor=#314354;" edge="1" parent="1" target="RutTHSJl229O0MzhaNBL-213">
          <mxGeometry width="50" height="50" relative="1" as="geometry">
            <mxPoint x="560" y="99.5" as="sourcePoint" />
            <mxPoint x="570" y="79.5" as="targetPoint" />
          </mxGeometry>
        </mxCell>
        <mxCell id="RutTHSJl229O0MzhaNBL-215" value="" style="endArrow=none;html=1;rounded=0;entryX=1;entryY=0.5;entryDx=0;entryDy=0;entryPerimeter=0;exitX=1;exitY=0.5;exitDx=0;exitDy=0;exitPerimeter=0;dashed=1;dashPattern=8 8;fillColor=#647687;strokeColor=#314354;" edge="1" parent="1" target="RutTHSJl229O0MzhaNBL-212">
          <mxGeometry width="50" height="50" relative="1" as="geometry">
            <mxPoint x="570" y="99.5" as="sourcePoint" />
            <mxPoint x="587.5" y="91.5" as="targetPoint" />
          </mxGeometry>
        </mxCell>
        <mxCell id="RutTHSJl229O0MzhaNBL-216" value="" style="endArrow=none;html=1;rounded=0;entryX=1;entryY=0.5;entryDx=0;entryDy=0;entryPerimeter=0;exitX=1;exitY=0.5;exitDx=0;exitDy=0;exitPerimeter=0;dashed=1;dashPattern=8 8;fillColor=#647687;strokeColor=#314354;" edge="1" parent="1" target="RutTHSJl229O0MzhaNBL-211">
          <mxGeometry width="50" height="50" relative="1" as="geometry">
            <mxPoint x="580" y="99.5" as="sourcePoint" />
            <mxPoint x="595" y="100.5" as="targetPoint" />
          </mxGeometry>
        </mxCell>
        <mxCell id="RutTHSJl229O0MzhaNBL-217" value="" style="endArrow=none;html=1;rounded=0;entryX=1;entryY=0.5;entryDx=0;entryDy=0;entryPerimeter=0;exitX=1;exitY=0.5;exitDx=0;exitDy=0;exitPerimeter=0;dashed=1;dashPattern=8 8;fillColor=#647687;strokeColor=#314354;" edge="1" parent="1" target="RutTHSJl229O0MzhaNBL-210">
          <mxGeometry width="50" height="50" relative="1" as="geometry">
            <mxPoint x="590" y="99.5" as="sourcePoint" />
            <mxPoint x="605" y="110.5" as="targetPoint" />
          </mxGeometry>
        </mxCell>
        <mxCell id="RutTHSJl229O0MzhaNBL-218" value="" style="shape=or;whiteSpace=wrap;html=1;rotation=-90;" vertex="1" parent="1">
          <mxGeometry x="550" y="129.5" width="80" height="19" as="geometry" />
        </mxCell>
        <mxCell id="RutTHSJl229O0MzhaNBL-219" value="" style="shape=or;whiteSpace=wrap;html=1;rotation=-90;" vertex="1" parent="1">
          <mxGeometry x="540" y="129.5" width="80" height="19" as="geometry" />
        </mxCell>
        <mxCell id="RutTHSJl229O0MzhaNBL-220" value="" style="shape=or;whiteSpace=wrap;html=1;rotation=-90;" vertex="1" parent="1">
          <mxGeometry x="530" y="129.5" width="80" height="19" as="geometry" />
        </mxCell>
        <mxCell id="RutTHSJl229O0MzhaNBL-221" value="" style="shape=or;whiteSpace=wrap;html=1;rotation=-90;" vertex="1" parent="1">
          <mxGeometry x="520" y="129.5" width="80" height="19" as="geometry" />
        </mxCell>
        <mxCell id="RutTHSJl229O0MzhaNBL-222" value="" style="shape=or;whiteSpace=wrap;html=1;rotation=-90;" vertex="1" parent="1">
          <mxGeometry x="505" y="148.5" width="80" height="19" as="geometry" />
        </mxCell>
        <mxCell id="RutTHSJl229O0MzhaNBL-223" value="" style="shape=or;whiteSpace=wrap;html=1;rotation=-90;" vertex="1" parent="1">
          <mxGeometry x="515" y="148.5" width="80" height="19" as="geometry" />
        </mxCell>
        <mxCell id="RutTHSJl229O0MzhaNBL-224" value="" style="shape=or;whiteSpace=wrap;html=1;rotation=-90;" vertex="1" parent="1">
          <mxGeometry x="525" y="148.5" width="80" height="19" as="geometry" />
        </mxCell>
        <mxCell id="RutTHSJl229O0MzhaNBL-225" value="" style="shape=or;whiteSpace=wrap;html=1;rotation=-90;" vertex="1" parent="1">
          <mxGeometry x="535" y="148.5" width="80" height="19" as="geometry" />
        </mxCell>
        <mxCell id="RutTHSJl229O0MzhaNBL-226" value="" style="endArrow=none;html=1;rounded=0;" edge="1" parent="1">
          <mxGeometry width="50" height="50" relative="1" as="geometry">
            <mxPoint x="585" y="198.5" as="sourcePoint" />
            <mxPoint x="600" y="178.5" as="targetPoint" />
          </mxGeometry>
        </mxCell>
        <mxCell id="RutTHSJl229O0MzhaNBL-227" value="" style="endArrow=none;html=1;rounded=0;entryX=1;entryY=0.5;entryDx=0;entryDy=0;entryPerimeter=0;exitX=1;exitY=0.5;exitDx=0;exitDy=0;exitPerimeter=0;" edge="1" parent="1" source="RutTHSJl229O0MzhaNBL-222" target="RutTHSJl229O0MzhaNBL-221">
          <mxGeometry width="50" height="50" relative="1" as="geometry">
            <mxPoint x="505" y="148.5" as="sourcePoint" />
            <mxPoint x="555" y="98.5" as="targetPoint" />
          </mxGeometry>
        </mxCell>
        <mxCell id="RutTHSJl229O0MzhaNBL-228" value="" style="endArrow=none;html=1;rounded=0;entryX=1;entryY=0.5;entryDx=0;entryDy=0;entryPerimeter=0;exitX=1;exitY=0.5;exitDx=0;exitDy=0;exitPerimeter=0;" edge="1" parent="1" source="RutTHSJl229O0MzhaNBL-223" target="RutTHSJl229O0MzhaNBL-220">
          <mxGeometry width="50" height="50" relative="1" as="geometry">
            <mxPoint x="557.5" y="129.5" as="sourcePoint" />
            <mxPoint x="572.5" y="110.5" as="targetPoint" />
          </mxGeometry>
        </mxCell>
        <mxCell id="RutTHSJl229O0MzhaNBL-229" value="" style="endArrow=none;html=1;rounded=0;entryX=1;entryY=0.5;entryDx=0;entryDy=0;entryPerimeter=0;exitX=1;exitY=0.5;exitDx=0;exitDy=0;exitPerimeter=0;" edge="1" parent="1" source="RutTHSJl229O0MzhaNBL-224" target="RutTHSJl229O0MzhaNBL-219">
          <mxGeometry width="50" height="50" relative="1" as="geometry">
            <mxPoint x="565" y="138.5" as="sourcePoint" />
            <mxPoint x="580" y="119.5" as="targetPoint" />
          </mxGeometry>
        </mxCell>
        <mxCell id="RutTHSJl229O0MzhaNBL-230" value="" style="endArrow=none;html=1;rounded=0;entryX=1;entryY=0.5;entryDx=0;entryDy=0;entryPerimeter=0;exitX=1;exitY=0.5;exitDx=0;exitDy=0;exitPerimeter=0;" edge="1" parent="1" source="RutTHSJl229O0MzhaNBL-225" target="RutTHSJl229O0MzhaNBL-218">
          <mxGeometry width="50" height="50" relative="1" as="geometry">
            <mxPoint x="575" y="148.5" as="sourcePoint" />
            <mxPoint x="590" y="129.5" as="targetPoint" />
          </mxGeometry>
        </mxCell>
        <mxCell id="RutTHSJl229O0MzhaNBL-231" value="" style="endArrow=none;html=1;rounded=0;exitX=-0.01;exitY=1.056;exitDx=0;exitDy=0;exitPerimeter=0;dashed=1;fillColor=#647687;strokeColor=#314354;dashPattern=8 8;" edge="1" parent="1" source="RutTHSJl229O0MzhaNBL-218">
          <mxGeometry width="50" height="50" relative="1" as="geometry">
            <mxPoint x="595" y="208.5" as="sourcePoint" />
            <mxPoint x="615" y="158.5" as="targetPoint" />
          </mxGeometry>
        </mxCell>
        <mxCell id="RutTHSJl229O0MzhaNBL-307" value="" style="endArrow=classic;html=1;rounded=0;" edge="1" parent="1">
          <mxGeometry width="50" height="50" relative="1" as="geometry">
            <mxPoint x="120" y="198.5" as="sourcePoint" />
            <mxPoint x="150" y="160" as="targetPoint" />
          </mxGeometry>
        </mxCell>
        <mxCell id="RutTHSJl229O0MzhaNBL-308" value="" style="endArrow=classic;html=1;rounded=0;" edge="1" parent="1">
          <mxGeometry width="50" height="50" relative="1" as="geometry">
            <mxPoint x="120" y="358.5" as="sourcePoint" />
            <mxPoint x="150" y="320" as="targetPoint" />
          </mxGeometry>
        </mxCell>
        <mxCell id="RutTHSJl229O0MzhaNBL-309" value="" style="endArrow=classic;html=1;rounded=0;" edge="1" parent="1">
          <mxGeometry width="50" height="50" relative="1" as="geometry">
            <mxPoint x="120" y="518.5" as="sourcePoint" />
            <mxPoint x="150" y="480" as="targetPoint" />
          </mxGeometry>
        </mxCell>
        <mxCell id="RutTHSJl229O0MzhaNBL-310" value="" style="endArrow=classic;html=1;rounded=0;" edge="1" parent="1">
          <mxGeometry width="50" height="50" relative="1" as="geometry">
            <mxPoint x="120" y="678.5" as="sourcePoint" />
            <mxPoint x="150" y="640" as="targetPoint" />
          </mxGeometry>
        </mxCell>
        <mxCell id="RutTHSJl229O0MzhaNBL-541" value="" style="shape=or;whiteSpace=wrap;html=1;rotation=-90;dashed=1;dashPattern=8 8;fillColor=#647687;fontColor=#ffffff;strokeColor=#314354;" vertex="1" parent="1">
          <mxGeometry x="190" y="271" width="80" height="19" as="geometry" />
        </mxCell>
        <mxCell id="RutTHSJl229O0MzhaNBL-542" value="" style="shape=or;whiteSpace=wrap;html=1;rotation=-90;dashed=1;dashPattern=8 8;fillColor=#647687;fontColor=#ffffff;strokeColor=#314354;" vertex="1" parent="1">
          <mxGeometry x="180" y="271" width="80" height="19" as="geometry" />
        </mxCell>
        <mxCell id="RutTHSJl229O0MzhaNBL-543" value="" style="shape=or;whiteSpace=wrap;html=1;rotation=-90;dashed=1;dashPattern=8 8;fillColor=#647687;fontColor=#ffffff;strokeColor=#314354;" vertex="1" parent="1">
          <mxGeometry x="170" y="271" width="80" height="19" as="geometry" />
        </mxCell>
        <mxCell id="RutTHSJl229O0MzhaNBL-544" value="" style="shape=or;whiteSpace=wrap;html=1;rotation=-90;dashed=1;dashPattern=8 8;fillColor=#647687;fontColor=#ffffff;strokeColor=#314354;" vertex="1" parent="1">
          <mxGeometry x="160" y="271" width="80" height="19" as="geometry" />
        </mxCell>
        <mxCell id="RutTHSJl229O0MzhaNBL-545" value="" style="endArrow=none;html=1;rounded=0;entryX=1;entryY=0.5;entryDx=0;entryDy=0;entryPerimeter=0;exitX=1;exitY=0.5;exitDx=0;exitDy=0;exitPerimeter=0;dashed=1;dashPattern=8 8;fillColor=#647687;strokeColor=#314354;" edge="1" parent="1" target="RutTHSJl229O0MzhaNBL-544">
          <mxGeometry width="50" height="50" relative="1" as="geometry">
            <mxPoint x="185" y="260" as="sourcePoint" />
            <mxPoint x="195" y="240" as="targetPoint" />
          </mxGeometry>
        </mxCell>
        <mxCell id="RutTHSJl229O0MzhaNBL-546" value="" style="endArrow=none;html=1;rounded=0;entryX=1;entryY=0.5;entryDx=0;entryDy=0;entryPerimeter=0;exitX=1;exitY=0.5;exitDx=0;exitDy=0;exitPerimeter=0;dashed=1;dashPattern=8 8;fillColor=#647687;strokeColor=#314354;" edge="1" parent="1" target="RutTHSJl229O0MzhaNBL-543">
          <mxGeometry width="50" height="50" relative="1" as="geometry">
            <mxPoint x="195" y="260" as="sourcePoint" />
            <mxPoint x="212.5" y="252" as="targetPoint" />
          </mxGeometry>
        </mxCell>
        <mxCell id="RutTHSJl229O0MzhaNBL-547" value="" style="endArrow=none;html=1;rounded=0;entryX=1;entryY=0.5;entryDx=0;entryDy=0;entryPerimeter=0;exitX=1;exitY=0.5;exitDx=0;exitDy=0;exitPerimeter=0;dashed=1;dashPattern=8 8;fillColor=#647687;strokeColor=#314354;" edge="1" parent="1" target="RutTHSJl229O0MzhaNBL-542">
          <mxGeometry width="50" height="50" relative="1" as="geometry">
            <mxPoint x="205" y="260" as="sourcePoint" />
            <mxPoint x="220" y="261" as="targetPoint" />
          </mxGeometry>
        </mxCell>
        <mxCell id="RutTHSJl229O0MzhaNBL-548" value="" style="endArrow=none;html=1;rounded=0;entryX=1;entryY=0.5;entryDx=0;entryDy=0;entryPerimeter=0;exitX=1;exitY=0.5;exitDx=0;exitDy=0;exitPerimeter=0;dashed=1;dashPattern=8 8;fillColor=#647687;strokeColor=#314354;" edge="1" parent="1" target="RutTHSJl229O0MzhaNBL-541">
          <mxGeometry width="50" height="50" relative="1" as="geometry">
            <mxPoint x="215" y="260" as="sourcePoint" />
            <mxPoint x="230" y="271" as="targetPoint" />
          </mxGeometry>
        </mxCell>
        <mxCell id="RutTHSJl229O0MzhaNBL-549" value="" style="shape=or;whiteSpace=wrap;html=1;rotation=-90;" vertex="1" parent="1">
          <mxGeometry x="175" y="290" width="80" height="19" as="geometry" />
        </mxCell>
        <mxCell id="RutTHSJl229O0MzhaNBL-550" value="" style="shape=or;whiteSpace=wrap;html=1;rotation=-90;" vertex="1" parent="1">
          <mxGeometry x="165" y="290" width="80" height="19" as="geometry" />
        </mxCell>
        <mxCell id="RutTHSJl229O0MzhaNBL-551" value="" style="shape=or;whiteSpace=wrap;html=1;rotation=-90;" vertex="1" parent="1">
          <mxGeometry x="155" y="290" width="80" height="19" as="geometry" />
        </mxCell>
        <mxCell id="RutTHSJl229O0MzhaNBL-552" value="" style="shape=or;whiteSpace=wrap;html=1;rotation=-90;" vertex="1" parent="1">
          <mxGeometry x="145" y="290" width="80" height="19" as="geometry" />
        </mxCell>
        <mxCell id="RutTHSJl229O0MzhaNBL-553" value="" style="shape=or;whiteSpace=wrap;html=1;rotation=-90;" vertex="1" parent="1">
          <mxGeometry x="130" y="309" width="80" height="19" as="geometry" />
        </mxCell>
        <mxCell id="RutTHSJl229O0MzhaNBL-554" value="" style="shape=or;whiteSpace=wrap;html=1;rotation=-90;" vertex="1" parent="1">
          <mxGeometry x="140" y="309" width="80" height="19" as="geometry" />
        </mxCell>
        <mxCell id="RutTHSJl229O0MzhaNBL-555" value="" style="shape=or;whiteSpace=wrap;html=1;rotation=-90;" vertex="1" parent="1">
          <mxGeometry x="150" y="309" width="80" height="19" as="geometry" />
        </mxCell>
        <mxCell id="RutTHSJl229O0MzhaNBL-556" value="" style="shape=or;whiteSpace=wrap;html=1;rotation=-90;" vertex="1" parent="1">
          <mxGeometry x="160" y="309" width="80" height="19" as="geometry" />
        </mxCell>
        <mxCell id="RutTHSJl229O0MzhaNBL-557" value="" style="endArrow=none;dashed=1;html=1;dashPattern=1 3;strokeWidth=2;rounded=0;" edge="1" parent="1">
          <mxGeometry width="50" height="50" relative="1" as="geometry">
            <mxPoint x="230" y="339" as="sourcePoint" />
            <mxPoint x="280" y="339.5" as="targetPoint" />
          </mxGeometry>
        </mxCell>
        <mxCell id="RutTHSJl229O0MzhaNBL-558" value="" style="shape=or;whiteSpace=wrap;html=1;rotation=-90;" vertex="1" parent="1">
          <mxGeometry x="260" y="309" width="80" height="19" as="geometry" />
        </mxCell>
        <mxCell id="RutTHSJl229O0MzhaNBL-559" value="" style="shape=or;whiteSpace=wrap;html=1;rotation=-90;" vertex="1" parent="1">
          <mxGeometry x="270" y="309" width="80" height="19" as="geometry" />
        </mxCell>
        <mxCell id="RutTHSJl229O0MzhaNBL-560" value="" style="shape=or;whiteSpace=wrap;html=1;rotation=-90;" vertex="1" parent="1">
          <mxGeometry x="280" y="309" width="80" height="19" as="geometry" />
        </mxCell>
        <mxCell id="RutTHSJl229O0MzhaNBL-561" value="" style="shape=or;whiteSpace=wrap;html=1;rotation=-90;" vertex="1" parent="1">
          <mxGeometry x="290" y="309" width="80" height="19" as="geometry" />
        </mxCell>
        <mxCell id="RutTHSJl229O0MzhaNBL-562" value="" style="shape=or;whiteSpace=wrap;html=1;rotation=-90;" vertex="1" parent="1">
          <mxGeometry x="505" y="309" width="80" height="19" as="geometry" />
        </mxCell>
        <mxCell id="RutTHSJl229O0MzhaNBL-563" value="" style="shape=or;whiteSpace=wrap;html=1;rotation=-90;" vertex="1" parent="1">
          <mxGeometry x="515" y="309" width="80" height="19" as="geometry" />
        </mxCell>
        <mxCell id="RutTHSJl229O0MzhaNBL-564" value="" style="shape=or;whiteSpace=wrap;html=1;rotation=-90;" vertex="1" parent="1">
          <mxGeometry x="525" y="309" width="80" height="19" as="geometry" />
        </mxCell>
        <mxCell id="RutTHSJl229O0MzhaNBL-565" value="" style="shape=or;whiteSpace=wrap;html=1;rotation=-90;" vertex="1" parent="1">
          <mxGeometry x="535" y="309" width="80" height="19" as="geometry" />
        </mxCell>
        <mxCell id="RutTHSJl229O0MzhaNBL-566" value="" style="endArrow=none;dashed=1;html=1;dashPattern=1 3;strokeWidth=2;rounded=0;" edge="1" parent="1">
          <mxGeometry width="50" height="50" relative="1" as="geometry">
            <mxPoint x="370" y="340" as="sourcePoint" />
            <mxPoint x="520" y="340" as="targetPoint" />
          </mxGeometry>
        </mxCell>
        <mxCell id="RutTHSJl229O0MzhaNBL-567" value="" style="endArrow=none;html=1;rounded=0;" edge="1" parent="1">
          <mxGeometry width="50" height="50" relative="1" as="geometry">
            <mxPoint x="210" y="359" as="sourcePoint" />
            <mxPoint x="225" y="339" as="targetPoint" />
          </mxGeometry>
        </mxCell>
        <mxCell id="RutTHSJl229O0MzhaNBL-568" value="" style="endArrow=none;html=1;rounded=0;entryX=1;entryY=0.5;entryDx=0;entryDy=0;entryPerimeter=0;exitX=1;exitY=0.5;exitDx=0;exitDy=0;exitPerimeter=0;" edge="1" parent="1" source="RutTHSJl229O0MzhaNBL-553" target="RutTHSJl229O0MzhaNBL-552">
          <mxGeometry width="50" height="50" relative="1" as="geometry">
            <mxPoint x="130" y="309" as="sourcePoint" />
            <mxPoint x="180" y="259" as="targetPoint" />
          </mxGeometry>
        </mxCell>
        <mxCell id="RutTHSJl229O0MzhaNBL-569" value="" style="endArrow=none;html=1;rounded=0;entryX=1;entryY=0.5;entryDx=0;entryDy=0;entryPerimeter=0;exitX=1;exitY=0.5;exitDx=0;exitDy=0;exitPerimeter=0;" edge="1" parent="1" source="RutTHSJl229O0MzhaNBL-554" target="RutTHSJl229O0MzhaNBL-551">
          <mxGeometry width="50" height="50" relative="1" as="geometry">
            <mxPoint x="182.5" y="290" as="sourcePoint" />
            <mxPoint x="197.5" y="271" as="targetPoint" />
          </mxGeometry>
        </mxCell>
        <mxCell id="RutTHSJl229O0MzhaNBL-570" value="" style="endArrow=none;html=1;rounded=0;entryX=1;entryY=0.5;entryDx=0;entryDy=0;entryPerimeter=0;exitX=1;exitY=0.5;exitDx=0;exitDy=0;exitPerimeter=0;" edge="1" parent="1" source="RutTHSJl229O0MzhaNBL-555" target="RutTHSJl229O0MzhaNBL-550">
          <mxGeometry width="50" height="50" relative="1" as="geometry">
            <mxPoint x="190" y="299" as="sourcePoint" />
            <mxPoint x="205" y="280" as="targetPoint" />
          </mxGeometry>
        </mxCell>
        <mxCell id="RutTHSJl229O0MzhaNBL-571" value="" style="endArrow=none;html=1;rounded=0;entryX=1;entryY=0.5;entryDx=0;entryDy=0;entryPerimeter=0;exitX=1;exitY=0.5;exitDx=0;exitDy=0;exitPerimeter=0;" edge="1" parent="1" source="RutTHSJl229O0MzhaNBL-556" target="RutTHSJl229O0MzhaNBL-549">
          <mxGeometry width="50" height="50" relative="1" as="geometry">
            <mxPoint x="200" y="309" as="sourcePoint" />
            <mxPoint x="215" y="290" as="targetPoint" />
          </mxGeometry>
        </mxCell>
        <mxCell id="RutTHSJl229O0MzhaNBL-572" value="" style="endArrow=none;html=1;rounded=0;exitX=-0.01;exitY=1.056;exitDx=0;exitDy=0;exitPerimeter=0;dashed=1;fillColor=#647687;strokeColor=#314354;dashPattern=8 8;" edge="1" parent="1" source="RutTHSJl229O0MzhaNBL-549">
          <mxGeometry width="50" height="50" relative="1" as="geometry">
            <mxPoint x="220" y="369" as="sourcePoint" />
            <mxPoint x="240" y="319" as="targetPoint" />
          </mxGeometry>
        </mxCell>
        <mxCell id="RutTHSJl229O0MzhaNBL-573" value="" style="shape=or;whiteSpace=wrap;html=1;rotation=-90;dashed=1;dashPattern=8 8;fillColor=#647687;fontColor=#ffffff;strokeColor=#314354;" vertex="1" parent="1">
          <mxGeometry x="320" y="270.75" width="80" height="19" as="geometry" />
        </mxCell>
        <mxCell id="RutTHSJl229O0MzhaNBL-574" value="" style="shape=or;whiteSpace=wrap;html=1;rotation=-90;dashed=1;dashPattern=8 8;fillColor=#647687;fontColor=#ffffff;strokeColor=#314354;" vertex="1" parent="1">
          <mxGeometry x="310" y="270.75" width="80" height="19" as="geometry" />
        </mxCell>
        <mxCell id="RutTHSJl229O0MzhaNBL-575" value="" style="shape=or;whiteSpace=wrap;html=1;rotation=-90;dashed=1;dashPattern=8 8;fillColor=#647687;fontColor=#ffffff;strokeColor=#314354;" vertex="1" parent="1">
          <mxGeometry x="300" y="270.75" width="80" height="19" as="geometry" />
        </mxCell>
        <mxCell id="RutTHSJl229O0MzhaNBL-576" value="" style="shape=or;whiteSpace=wrap;html=1;rotation=-90;dashed=1;dashPattern=8 8;fillColor=#647687;fontColor=#ffffff;strokeColor=#314354;" vertex="1" parent="1">
          <mxGeometry x="290" y="270.75" width="80" height="19" as="geometry" />
        </mxCell>
        <mxCell id="RutTHSJl229O0MzhaNBL-577" value="" style="endArrow=none;html=1;rounded=0;entryX=1;entryY=0.5;entryDx=0;entryDy=0;entryPerimeter=0;exitX=1;exitY=0.5;exitDx=0;exitDy=0;exitPerimeter=0;dashed=1;dashPattern=8 8;fillColor=#647687;strokeColor=#314354;" edge="1" parent="1" target="RutTHSJl229O0MzhaNBL-576">
          <mxGeometry width="50" height="50" relative="1" as="geometry">
            <mxPoint x="315" y="259.75" as="sourcePoint" />
            <mxPoint x="325" y="239.75" as="targetPoint" />
          </mxGeometry>
        </mxCell>
        <mxCell id="RutTHSJl229O0MzhaNBL-578" value="" style="endArrow=none;html=1;rounded=0;entryX=1;entryY=0.5;entryDx=0;entryDy=0;entryPerimeter=0;exitX=1;exitY=0.5;exitDx=0;exitDy=0;exitPerimeter=0;dashed=1;dashPattern=8 8;fillColor=#647687;strokeColor=#314354;" edge="1" parent="1" target="RutTHSJl229O0MzhaNBL-575">
          <mxGeometry width="50" height="50" relative="1" as="geometry">
            <mxPoint x="325" y="259.75" as="sourcePoint" />
            <mxPoint x="342.5" y="251.75" as="targetPoint" />
          </mxGeometry>
        </mxCell>
        <mxCell id="RutTHSJl229O0MzhaNBL-579" value="" style="endArrow=none;html=1;rounded=0;entryX=1;entryY=0.5;entryDx=0;entryDy=0;entryPerimeter=0;exitX=1;exitY=0.5;exitDx=0;exitDy=0;exitPerimeter=0;dashed=1;dashPattern=8 8;fillColor=#647687;strokeColor=#314354;" edge="1" parent="1" target="RutTHSJl229O0MzhaNBL-574">
          <mxGeometry width="50" height="50" relative="1" as="geometry">
            <mxPoint x="335" y="259.75" as="sourcePoint" />
            <mxPoint x="350" y="260.75" as="targetPoint" />
          </mxGeometry>
        </mxCell>
        <mxCell id="RutTHSJl229O0MzhaNBL-580" value="" style="endArrow=none;html=1;rounded=0;entryX=1;entryY=0.5;entryDx=0;entryDy=0;entryPerimeter=0;exitX=1;exitY=0.5;exitDx=0;exitDy=0;exitPerimeter=0;dashed=1;dashPattern=8 8;fillColor=#647687;strokeColor=#314354;" edge="1" parent="1" target="RutTHSJl229O0MzhaNBL-573">
          <mxGeometry width="50" height="50" relative="1" as="geometry">
            <mxPoint x="345" y="259.75" as="sourcePoint" />
            <mxPoint x="360" y="270.75" as="targetPoint" />
          </mxGeometry>
        </mxCell>
        <mxCell id="RutTHSJl229O0MzhaNBL-581" value="" style="shape=or;whiteSpace=wrap;html=1;rotation=-90;" vertex="1" parent="1">
          <mxGeometry x="305" y="289.75" width="80" height="19" as="geometry" />
        </mxCell>
        <mxCell id="RutTHSJl229O0MzhaNBL-582" value="" style="shape=or;whiteSpace=wrap;html=1;rotation=-90;" vertex="1" parent="1">
          <mxGeometry x="295" y="289.75" width="80" height="19" as="geometry" />
        </mxCell>
        <mxCell id="RutTHSJl229O0MzhaNBL-583" value="" style="shape=or;whiteSpace=wrap;html=1;rotation=-90;" vertex="1" parent="1">
          <mxGeometry x="285" y="289.75" width="80" height="19" as="geometry" />
        </mxCell>
        <mxCell id="RutTHSJl229O0MzhaNBL-584" value="" style="shape=or;whiteSpace=wrap;html=1;rotation=-90;" vertex="1" parent="1">
          <mxGeometry x="275" y="289.75" width="80" height="19" as="geometry" />
        </mxCell>
        <mxCell id="RutTHSJl229O0MzhaNBL-585" value="" style="shape=or;whiteSpace=wrap;html=1;rotation=-90;" vertex="1" parent="1">
          <mxGeometry x="260" y="308.75" width="80" height="19" as="geometry" />
        </mxCell>
        <mxCell id="RutTHSJl229O0MzhaNBL-586" value="" style="shape=or;whiteSpace=wrap;html=1;rotation=-90;" vertex="1" parent="1">
          <mxGeometry x="270" y="308.75" width="80" height="19" as="geometry" />
        </mxCell>
        <mxCell id="RutTHSJl229O0MzhaNBL-587" value="" style="shape=or;whiteSpace=wrap;html=1;rotation=-90;" vertex="1" parent="1">
          <mxGeometry x="280" y="308.75" width="80" height="19" as="geometry" />
        </mxCell>
        <mxCell id="RutTHSJl229O0MzhaNBL-588" value="" style="shape=or;whiteSpace=wrap;html=1;rotation=-90;" vertex="1" parent="1">
          <mxGeometry x="290" y="308.75" width="80" height="19" as="geometry" />
        </mxCell>
        <mxCell id="RutTHSJl229O0MzhaNBL-589" value="" style="endArrow=none;html=1;rounded=0;" edge="1" parent="1">
          <mxGeometry width="50" height="50" relative="1" as="geometry">
            <mxPoint x="340" y="358.75" as="sourcePoint" />
            <mxPoint x="355" y="338.75" as="targetPoint" />
          </mxGeometry>
        </mxCell>
        <mxCell id="RutTHSJl229O0MzhaNBL-590" value="" style="endArrow=none;html=1;rounded=0;entryX=1;entryY=0.5;entryDx=0;entryDy=0;entryPerimeter=0;exitX=1;exitY=0.5;exitDx=0;exitDy=0;exitPerimeter=0;" edge="1" parent="1" source="RutTHSJl229O0MzhaNBL-585" target="RutTHSJl229O0MzhaNBL-584">
          <mxGeometry width="50" height="50" relative="1" as="geometry">
            <mxPoint x="260" y="308.75" as="sourcePoint" />
            <mxPoint x="310" y="258.75" as="targetPoint" />
          </mxGeometry>
        </mxCell>
        <mxCell id="RutTHSJl229O0MzhaNBL-591" value="" style="endArrow=none;html=1;rounded=0;entryX=1;entryY=0.5;entryDx=0;entryDy=0;entryPerimeter=0;exitX=1;exitY=0.5;exitDx=0;exitDy=0;exitPerimeter=0;" edge="1" parent="1" source="RutTHSJl229O0MzhaNBL-586" target="RutTHSJl229O0MzhaNBL-583">
          <mxGeometry width="50" height="50" relative="1" as="geometry">
            <mxPoint x="312.5" y="289.75" as="sourcePoint" />
            <mxPoint x="327.5" y="270.75" as="targetPoint" />
          </mxGeometry>
        </mxCell>
        <mxCell id="RutTHSJl229O0MzhaNBL-592" value="" style="endArrow=none;html=1;rounded=0;entryX=1;entryY=0.5;entryDx=0;entryDy=0;entryPerimeter=0;exitX=1;exitY=0.5;exitDx=0;exitDy=0;exitPerimeter=0;" edge="1" parent="1" source="RutTHSJl229O0MzhaNBL-587" target="RutTHSJl229O0MzhaNBL-582">
          <mxGeometry width="50" height="50" relative="1" as="geometry">
            <mxPoint x="320" y="298.75" as="sourcePoint" />
            <mxPoint x="335" y="279.75" as="targetPoint" />
          </mxGeometry>
        </mxCell>
        <mxCell id="RutTHSJl229O0MzhaNBL-593" value="" style="endArrow=none;html=1;rounded=0;entryX=1;entryY=0.5;entryDx=0;entryDy=0;entryPerimeter=0;exitX=1;exitY=0.5;exitDx=0;exitDy=0;exitPerimeter=0;" edge="1" parent="1" source="RutTHSJl229O0MzhaNBL-588" target="RutTHSJl229O0MzhaNBL-581">
          <mxGeometry width="50" height="50" relative="1" as="geometry">
            <mxPoint x="330" y="308.75" as="sourcePoint" />
            <mxPoint x="345" y="289.75" as="targetPoint" />
          </mxGeometry>
        </mxCell>
        <mxCell id="RutTHSJl229O0MzhaNBL-594" value="" style="endArrow=none;html=1;rounded=0;exitX=-0.01;exitY=1.056;exitDx=0;exitDy=0;exitPerimeter=0;dashed=1;fillColor=#647687;strokeColor=#314354;dashPattern=8 8;" edge="1" parent="1" source="RutTHSJl229O0MzhaNBL-581">
          <mxGeometry width="50" height="50" relative="1" as="geometry">
            <mxPoint x="350" y="368.75" as="sourcePoint" />
            <mxPoint x="370" y="318.75" as="targetPoint" />
          </mxGeometry>
        </mxCell>
        <mxCell id="RutTHSJl229O0MzhaNBL-595" value="" style="shape=or;whiteSpace=wrap;html=1;rotation=-90;dashed=1;dashPattern=8 8;fillColor=#647687;fontColor=#ffffff;strokeColor=#314354;" vertex="1" parent="1">
          <mxGeometry x="565" y="270.5" width="80" height="19" as="geometry" />
        </mxCell>
        <mxCell id="RutTHSJl229O0MzhaNBL-596" value="" style="shape=or;whiteSpace=wrap;html=1;rotation=-90;dashed=1;dashPattern=8 8;fillColor=#647687;fontColor=#ffffff;strokeColor=#314354;" vertex="1" parent="1">
          <mxGeometry x="555" y="270.5" width="80" height="19" as="geometry" />
        </mxCell>
        <mxCell id="RutTHSJl229O0MzhaNBL-597" value="" style="shape=or;whiteSpace=wrap;html=1;rotation=-90;dashed=1;dashPattern=8 8;fillColor=#647687;fontColor=#ffffff;strokeColor=#314354;" vertex="1" parent="1">
          <mxGeometry x="545" y="270.5" width="80" height="19" as="geometry" />
        </mxCell>
        <mxCell id="RutTHSJl229O0MzhaNBL-598" value="" style="shape=or;whiteSpace=wrap;html=1;rotation=-90;dashed=1;dashPattern=8 8;fillColor=#647687;fontColor=#ffffff;strokeColor=#314354;" vertex="1" parent="1">
          <mxGeometry x="535" y="270.5" width="80" height="19" as="geometry" />
        </mxCell>
        <mxCell id="RutTHSJl229O0MzhaNBL-599" value="" style="endArrow=none;html=1;rounded=0;entryX=1;entryY=0.5;entryDx=0;entryDy=0;entryPerimeter=0;exitX=1;exitY=0.5;exitDx=0;exitDy=0;exitPerimeter=0;dashed=1;dashPattern=8 8;fillColor=#647687;strokeColor=#314354;" edge="1" parent="1" target="RutTHSJl229O0MzhaNBL-598">
          <mxGeometry width="50" height="50" relative="1" as="geometry">
            <mxPoint x="560" y="259.5" as="sourcePoint" />
            <mxPoint x="570" y="239.5" as="targetPoint" />
          </mxGeometry>
        </mxCell>
        <mxCell id="RutTHSJl229O0MzhaNBL-600" value="" style="endArrow=none;html=1;rounded=0;entryX=1;entryY=0.5;entryDx=0;entryDy=0;entryPerimeter=0;exitX=1;exitY=0.5;exitDx=0;exitDy=0;exitPerimeter=0;dashed=1;dashPattern=8 8;fillColor=#647687;strokeColor=#314354;" edge="1" parent="1" target="RutTHSJl229O0MzhaNBL-597">
          <mxGeometry width="50" height="50" relative="1" as="geometry">
            <mxPoint x="570" y="259.5" as="sourcePoint" />
            <mxPoint x="587.5" y="251.5" as="targetPoint" />
          </mxGeometry>
        </mxCell>
        <mxCell id="RutTHSJl229O0MzhaNBL-601" value="" style="endArrow=none;html=1;rounded=0;entryX=1;entryY=0.5;entryDx=0;entryDy=0;entryPerimeter=0;exitX=1;exitY=0.5;exitDx=0;exitDy=0;exitPerimeter=0;dashed=1;dashPattern=8 8;fillColor=#647687;strokeColor=#314354;" edge="1" parent="1" target="RutTHSJl229O0MzhaNBL-596">
          <mxGeometry width="50" height="50" relative="1" as="geometry">
            <mxPoint x="580" y="259.5" as="sourcePoint" />
            <mxPoint x="595" y="260.5" as="targetPoint" />
          </mxGeometry>
        </mxCell>
        <mxCell id="RutTHSJl229O0MzhaNBL-602" value="" style="endArrow=none;html=1;rounded=0;entryX=1;entryY=0.5;entryDx=0;entryDy=0;entryPerimeter=0;exitX=1;exitY=0.5;exitDx=0;exitDy=0;exitPerimeter=0;dashed=1;dashPattern=8 8;fillColor=#647687;strokeColor=#314354;" edge="1" parent="1" target="RutTHSJl229O0MzhaNBL-595">
          <mxGeometry width="50" height="50" relative="1" as="geometry">
            <mxPoint x="590" y="259.5" as="sourcePoint" />
            <mxPoint x="605" y="270.5" as="targetPoint" />
          </mxGeometry>
        </mxCell>
        <mxCell id="RutTHSJl229O0MzhaNBL-603" value="" style="shape=or;whiteSpace=wrap;html=1;rotation=-90;" vertex="1" parent="1">
          <mxGeometry x="550" y="289.5" width="80" height="19" as="geometry" />
        </mxCell>
        <mxCell id="RutTHSJl229O0MzhaNBL-604" value="" style="shape=or;whiteSpace=wrap;html=1;rotation=-90;" vertex="1" parent="1">
          <mxGeometry x="540" y="289.5" width="80" height="19" as="geometry" />
        </mxCell>
        <mxCell id="RutTHSJl229O0MzhaNBL-605" value="" style="shape=or;whiteSpace=wrap;html=1;rotation=-90;" vertex="1" parent="1">
          <mxGeometry x="530" y="289.5" width="80" height="19" as="geometry" />
        </mxCell>
        <mxCell id="RutTHSJl229O0MzhaNBL-606" value="" style="shape=or;whiteSpace=wrap;html=1;rotation=-90;" vertex="1" parent="1">
          <mxGeometry x="520" y="289.5" width="80" height="19" as="geometry" />
        </mxCell>
        <mxCell id="RutTHSJl229O0MzhaNBL-607" value="" style="shape=or;whiteSpace=wrap;html=1;rotation=-90;" vertex="1" parent="1">
          <mxGeometry x="505" y="308.5" width="80" height="19" as="geometry" />
        </mxCell>
        <mxCell id="RutTHSJl229O0MzhaNBL-608" value="" style="shape=or;whiteSpace=wrap;html=1;rotation=-90;" vertex="1" parent="1">
          <mxGeometry x="515" y="308.5" width="80" height="19" as="geometry" />
        </mxCell>
        <mxCell id="RutTHSJl229O0MzhaNBL-609" value="" style="shape=or;whiteSpace=wrap;html=1;rotation=-90;" vertex="1" parent="1">
          <mxGeometry x="525" y="308.5" width="80" height="19" as="geometry" />
        </mxCell>
        <mxCell id="RutTHSJl229O0MzhaNBL-610" value="" style="shape=or;whiteSpace=wrap;html=1;rotation=-90;" vertex="1" parent="1">
          <mxGeometry x="535" y="308.5" width="80" height="19" as="geometry" />
        </mxCell>
        <mxCell id="RutTHSJl229O0MzhaNBL-611" value="" style="endArrow=none;html=1;rounded=0;" edge="1" parent="1">
          <mxGeometry width="50" height="50" relative="1" as="geometry">
            <mxPoint x="585" y="358.5" as="sourcePoint" />
            <mxPoint x="600" y="338.5" as="targetPoint" />
          </mxGeometry>
        </mxCell>
        <mxCell id="RutTHSJl229O0MzhaNBL-612" value="" style="endArrow=none;html=1;rounded=0;entryX=1;entryY=0.5;entryDx=0;entryDy=0;entryPerimeter=0;exitX=1;exitY=0.5;exitDx=0;exitDy=0;exitPerimeter=0;" edge="1" parent="1" source="RutTHSJl229O0MzhaNBL-607" target="RutTHSJl229O0MzhaNBL-606">
          <mxGeometry width="50" height="50" relative="1" as="geometry">
            <mxPoint x="505" y="308.5" as="sourcePoint" />
            <mxPoint x="555" y="258.5" as="targetPoint" />
          </mxGeometry>
        </mxCell>
        <mxCell id="RutTHSJl229O0MzhaNBL-613" value="" style="endArrow=none;html=1;rounded=0;entryX=1;entryY=0.5;entryDx=0;entryDy=0;entryPerimeter=0;exitX=1;exitY=0.5;exitDx=0;exitDy=0;exitPerimeter=0;" edge="1" parent="1" source="RutTHSJl229O0MzhaNBL-608" target="RutTHSJl229O0MzhaNBL-605">
          <mxGeometry width="50" height="50" relative="1" as="geometry">
            <mxPoint x="557.5" y="289.5" as="sourcePoint" />
            <mxPoint x="572.5" y="270.5" as="targetPoint" />
          </mxGeometry>
        </mxCell>
        <mxCell id="RutTHSJl229O0MzhaNBL-614" value="" style="endArrow=none;html=1;rounded=0;entryX=1;entryY=0.5;entryDx=0;entryDy=0;entryPerimeter=0;exitX=1;exitY=0.5;exitDx=0;exitDy=0;exitPerimeter=0;" edge="1" parent="1" source="RutTHSJl229O0MzhaNBL-609" target="RutTHSJl229O0MzhaNBL-604">
          <mxGeometry width="50" height="50" relative="1" as="geometry">
            <mxPoint x="565" y="298.5" as="sourcePoint" />
            <mxPoint x="580" y="279.5" as="targetPoint" />
          </mxGeometry>
        </mxCell>
        <mxCell id="RutTHSJl229O0MzhaNBL-615" value="" style="endArrow=none;html=1;rounded=0;entryX=1;entryY=0.5;entryDx=0;entryDy=0;entryPerimeter=0;exitX=1;exitY=0.5;exitDx=0;exitDy=0;exitPerimeter=0;" edge="1" parent="1" source="RutTHSJl229O0MzhaNBL-610" target="RutTHSJl229O0MzhaNBL-603">
          <mxGeometry width="50" height="50" relative="1" as="geometry">
            <mxPoint x="575" y="308.5" as="sourcePoint" />
            <mxPoint x="590" y="289.5" as="targetPoint" />
          </mxGeometry>
        </mxCell>
        <mxCell id="RutTHSJl229O0MzhaNBL-616" value="" style="endArrow=none;html=1;rounded=0;exitX=-0.01;exitY=1.056;exitDx=0;exitDy=0;exitPerimeter=0;dashed=1;fillColor=#647687;strokeColor=#314354;dashPattern=8 8;" edge="1" parent="1" source="RutTHSJl229O0MzhaNBL-603">
          <mxGeometry width="50" height="50" relative="1" as="geometry">
            <mxPoint x="595" y="368.5" as="sourcePoint" />
            <mxPoint x="615" y="318.5" as="targetPoint" />
          </mxGeometry>
        </mxCell>
        <mxCell id="RutTHSJl229O0MzhaNBL-617" value="" style="shape=or;whiteSpace=wrap;html=1;rotation=-90;dashed=1;dashPattern=8 8;fillColor=#647687;fontColor=#ffffff;strokeColor=#314354;" vertex="1" parent="1">
          <mxGeometry x="190" y="431" width="80" height="19" as="geometry" />
        </mxCell>
        <mxCell id="RutTHSJl229O0MzhaNBL-618" value="" style="shape=or;whiteSpace=wrap;html=1;rotation=-90;dashed=1;dashPattern=8 8;fillColor=#647687;fontColor=#ffffff;strokeColor=#314354;" vertex="1" parent="1">
          <mxGeometry x="180" y="431" width="80" height="19" as="geometry" />
        </mxCell>
        <mxCell id="RutTHSJl229O0MzhaNBL-619" value="" style="shape=or;whiteSpace=wrap;html=1;rotation=-90;dashed=1;dashPattern=8 8;fillColor=#647687;fontColor=#ffffff;strokeColor=#314354;" vertex="1" parent="1">
          <mxGeometry x="170" y="431" width="80" height="19" as="geometry" />
        </mxCell>
        <mxCell id="RutTHSJl229O0MzhaNBL-620" value="" style="shape=or;whiteSpace=wrap;html=1;rotation=-90;dashed=1;dashPattern=8 8;fillColor=#647687;fontColor=#ffffff;strokeColor=#314354;" vertex="1" parent="1">
          <mxGeometry x="160" y="431" width="80" height="19" as="geometry" />
        </mxCell>
        <mxCell id="RutTHSJl229O0MzhaNBL-621" value="" style="endArrow=none;html=1;rounded=0;entryX=1;entryY=0.5;entryDx=0;entryDy=0;entryPerimeter=0;exitX=1;exitY=0.5;exitDx=0;exitDy=0;exitPerimeter=0;dashed=1;dashPattern=8 8;fillColor=#647687;strokeColor=#314354;" edge="1" parent="1" target="RutTHSJl229O0MzhaNBL-620">
          <mxGeometry width="50" height="50" relative="1" as="geometry">
            <mxPoint x="185" y="420" as="sourcePoint" />
            <mxPoint x="195" y="400" as="targetPoint" />
          </mxGeometry>
        </mxCell>
        <mxCell id="RutTHSJl229O0MzhaNBL-622" value="" style="endArrow=none;html=1;rounded=0;entryX=1;entryY=0.5;entryDx=0;entryDy=0;entryPerimeter=0;exitX=1;exitY=0.5;exitDx=0;exitDy=0;exitPerimeter=0;dashed=1;dashPattern=8 8;fillColor=#647687;strokeColor=#314354;" edge="1" parent="1" target="RutTHSJl229O0MzhaNBL-619">
          <mxGeometry width="50" height="50" relative="1" as="geometry">
            <mxPoint x="195" y="420" as="sourcePoint" />
            <mxPoint x="212.5" y="412" as="targetPoint" />
          </mxGeometry>
        </mxCell>
        <mxCell id="RutTHSJl229O0MzhaNBL-623" value="" style="endArrow=none;html=1;rounded=0;entryX=1;entryY=0.5;entryDx=0;entryDy=0;entryPerimeter=0;exitX=1;exitY=0.5;exitDx=0;exitDy=0;exitPerimeter=0;dashed=1;dashPattern=8 8;fillColor=#647687;strokeColor=#314354;" edge="1" parent="1" target="RutTHSJl229O0MzhaNBL-618">
          <mxGeometry width="50" height="50" relative="1" as="geometry">
            <mxPoint x="205" y="420" as="sourcePoint" />
            <mxPoint x="220" y="421" as="targetPoint" />
          </mxGeometry>
        </mxCell>
        <mxCell id="RutTHSJl229O0MzhaNBL-624" value="" style="endArrow=none;html=1;rounded=0;entryX=1;entryY=0.5;entryDx=0;entryDy=0;entryPerimeter=0;exitX=1;exitY=0.5;exitDx=0;exitDy=0;exitPerimeter=0;dashed=1;dashPattern=8 8;fillColor=#647687;strokeColor=#314354;" edge="1" parent="1" target="RutTHSJl229O0MzhaNBL-617">
          <mxGeometry width="50" height="50" relative="1" as="geometry">
            <mxPoint x="215" y="420" as="sourcePoint" />
            <mxPoint x="230" y="431" as="targetPoint" />
          </mxGeometry>
        </mxCell>
        <mxCell id="RutTHSJl229O0MzhaNBL-625" value="" style="shape=or;whiteSpace=wrap;html=1;rotation=-90;" vertex="1" parent="1">
          <mxGeometry x="175" y="450" width="80" height="19" as="geometry" />
        </mxCell>
        <mxCell id="RutTHSJl229O0MzhaNBL-626" value="" style="shape=or;whiteSpace=wrap;html=1;rotation=-90;" vertex="1" parent="1">
          <mxGeometry x="165" y="450" width="80" height="19" as="geometry" />
        </mxCell>
        <mxCell id="RutTHSJl229O0MzhaNBL-627" value="" style="shape=or;whiteSpace=wrap;html=1;rotation=-90;" vertex="1" parent="1">
          <mxGeometry x="155" y="450" width="80" height="19" as="geometry" />
        </mxCell>
        <mxCell id="RutTHSJl229O0MzhaNBL-628" value="" style="shape=or;whiteSpace=wrap;html=1;rotation=-90;" vertex="1" parent="1">
          <mxGeometry x="145" y="450" width="80" height="19" as="geometry" />
        </mxCell>
        <mxCell id="RutTHSJl229O0MzhaNBL-629" value="" style="shape=or;whiteSpace=wrap;html=1;rotation=-90;" vertex="1" parent="1">
          <mxGeometry x="130" y="469" width="80" height="19" as="geometry" />
        </mxCell>
        <mxCell id="RutTHSJl229O0MzhaNBL-630" value="" style="shape=or;whiteSpace=wrap;html=1;rotation=-90;" vertex="1" parent="1">
          <mxGeometry x="140" y="469" width="80" height="19" as="geometry" />
        </mxCell>
        <mxCell id="RutTHSJl229O0MzhaNBL-631" value="" style="shape=or;whiteSpace=wrap;html=1;rotation=-90;" vertex="1" parent="1">
          <mxGeometry x="150" y="469" width="80" height="19" as="geometry" />
        </mxCell>
        <mxCell id="RutTHSJl229O0MzhaNBL-632" value="" style="shape=or;whiteSpace=wrap;html=1;rotation=-90;" vertex="1" parent="1">
          <mxGeometry x="160" y="469" width="80" height="19" as="geometry" />
        </mxCell>
        <mxCell id="RutTHSJl229O0MzhaNBL-633" value="" style="endArrow=none;dashed=1;html=1;dashPattern=1 3;strokeWidth=2;rounded=0;" edge="1" parent="1">
          <mxGeometry width="50" height="50" relative="1" as="geometry">
            <mxPoint x="230" y="499" as="sourcePoint" />
            <mxPoint x="280" y="499.5" as="targetPoint" />
          </mxGeometry>
        </mxCell>
        <mxCell id="RutTHSJl229O0MzhaNBL-634" value="" style="shape=or;whiteSpace=wrap;html=1;rotation=-90;" vertex="1" parent="1">
          <mxGeometry x="260" y="469" width="80" height="19" as="geometry" />
        </mxCell>
        <mxCell id="RutTHSJl229O0MzhaNBL-635" value="" style="shape=or;whiteSpace=wrap;html=1;rotation=-90;" vertex="1" parent="1">
          <mxGeometry x="270" y="469" width="80" height="19" as="geometry" />
        </mxCell>
        <mxCell id="RutTHSJl229O0MzhaNBL-636" value="" style="shape=or;whiteSpace=wrap;html=1;rotation=-90;" vertex="1" parent="1">
          <mxGeometry x="280" y="469" width="80" height="19" as="geometry" />
        </mxCell>
        <mxCell id="RutTHSJl229O0MzhaNBL-637" value="" style="shape=or;whiteSpace=wrap;html=1;rotation=-90;" vertex="1" parent="1">
          <mxGeometry x="290" y="469" width="80" height="19" as="geometry" />
        </mxCell>
        <mxCell id="RutTHSJl229O0MzhaNBL-638" value="" style="shape=or;whiteSpace=wrap;html=1;rotation=-90;" vertex="1" parent="1">
          <mxGeometry x="505" y="469" width="80" height="19" as="geometry" />
        </mxCell>
        <mxCell id="RutTHSJl229O0MzhaNBL-639" value="" style="shape=or;whiteSpace=wrap;html=1;rotation=-90;" vertex="1" parent="1">
          <mxGeometry x="515" y="469" width="80" height="19" as="geometry" />
        </mxCell>
        <mxCell id="RutTHSJl229O0MzhaNBL-640" value="" style="shape=or;whiteSpace=wrap;html=1;rotation=-90;" vertex="1" parent="1">
          <mxGeometry x="525" y="469" width="80" height="19" as="geometry" />
        </mxCell>
        <mxCell id="RutTHSJl229O0MzhaNBL-641" value="" style="shape=or;whiteSpace=wrap;html=1;rotation=-90;" vertex="1" parent="1">
          <mxGeometry x="535" y="469" width="80" height="19" as="geometry" />
        </mxCell>
        <mxCell id="RutTHSJl229O0MzhaNBL-642" value="" style="endArrow=none;dashed=1;html=1;dashPattern=1 3;strokeWidth=2;rounded=0;" edge="1" parent="1">
          <mxGeometry width="50" height="50" relative="1" as="geometry">
            <mxPoint x="370" y="500" as="sourcePoint" />
            <mxPoint x="520" y="500" as="targetPoint" />
          </mxGeometry>
        </mxCell>
        <mxCell id="RutTHSJl229O0MzhaNBL-643" value="" style="endArrow=none;html=1;rounded=0;" edge="1" parent="1">
          <mxGeometry width="50" height="50" relative="1" as="geometry">
            <mxPoint x="210" y="519" as="sourcePoint" />
            <mxPoint x="225" y="499" as="targetPoint" />
          </mxGeometry>
        </mxCell>
        <mxCell id="RutTHSJl229O0MzhaNBL-644" value="" style="endArrow=none;html=1;rounded=0;entryX=1;entryY=0.5;entryDx=0;entryDy=0;entryPerimeter=0;exitX=1;exitY=0.5;exitDx=0;exitDy=0;exitPerimeter=0;" edge="1" parent="1" source="RutTHSJl229O0MzhaNBL-629" target="RutTHSJl229O0MzhaNBL-628">
          <mxGeometry width="50" height="50" relative="1" as="geometry">
            <mxPoint x="130" y="469" as="sourcePoint" />
            <mxPoint x="180" y="419" as="targetPoint" />
          </mxGeometry>
        </mxCell>
        <mxCell id="RutTHSJl229O0MzhaNBL-645" value="" style="endArrow=none;html=1;rounded=0;entryX=1;entryY=0.5;entryDx=0;entryDy=0;entryPerimeter=0;exitX=1;exitY=0.5;exitDx=0;exitDy=0;exitPerimeter=0;" edge="1" parent="1" source="RutTHSJl229O0MzhaNBL-630" target="RutTHSJl229O0MzhaNBL-627">
          <mxGeometry width="50" height="50" relative="1" as="geometry">
            <mxPoint x="182.5" y="450" as="sourcePoint" />
            <mxPoint x="197.5" y="431" as="targetPoint" />
          </mxGeometry>
        </mxCell>
        <mxCell id="RutTHSJl229O0MzhaNBL-646" value="" style="endArrow=none;html=1;rounded=0;entryX=1;entryY=0.5;entryDx=0;entryDy=0;entryPerimeter=0;exitX=1;exitY=0.5;exitDx=0;exitDy=0;exitPerimeter=0;" edge="1" parent="1" source="RutTHSJl229O0MzhaNBL-631" target="RutTHSJl229O0MzhaNBL-626">
          <mxGeometry width="50" height="50" relative="1" as="geometry">
            <mxPoint x="190" y="459" as="sourcePoint" />
            <mxPoint x="205" y="440" as="targetPoint" />
          </mxGeometry>
        </mxCell>
        <mxCell id="RutTHSJl229O0MzhaNBL-647" value="" style="endArrow=none;html=1;rounded=0;entryX=1;entryY=0.5;entryDx=0;entryDy=0;entryPerimeter=0;exitX=1;exitY=0.5;exitDx=0;exitDy=0;exitPerimeter=0;" edge="1" parent="1" source="RutTHSJl229O0MzhaNBL-632" target="RutTHSJl229O0MzhaNBL-625">
          <mxGeometry width="50" height="50" relative="1" as="geometry">
            <mxPoint x="200" y="469" as="sourcePoint" />
            <mxPoint x="215" y="450" as="targetPoint" />
          </mxGeometry>
        </mxCell>
        <mxCell id="RutTHSJl229O0MzhaNBL-648" value="" style="endArrow=none;html=1;rounded=0;exitX=-0.01;exitY=1.056;exitDx=0;exitDy=0;exitPerimeter=0;dashed=1;fillColor=#647687;strokeColor=#314354;dashPattern=8 8;" edge="1" parent="1" source="RutTHSJl229O0MzhaNBL-625">
          <mxGeometry width="50" height="50" relative="1" as="geometry">
            <mxPoint x="220" y="529" as="sourcePoint" />
            <mxPoint x="240" y="479" as="targetPoint" />
          </mxGeometry>
        </mxCell>
        <mxCell id="RutTHSJl229O0MzhaNBL-649" value="" style="shape=or;whiteSpace=wrap;html=1;rotation=-90;dashed=1;dashPattern=8 8;fillColor=#647687;fontColor=#ffffff;strokeColor=#314354;" vertex="1" parent="1">
          <mxGeometry x="320" y="430.75" width="80" height="19" as="geometry" />
        </mxCell>
        <mxCell id="RutTHSJl229O0MzhaNBL-650" value="" style="shape=or;whiteSpace=wrap;html=1;rotation=-90;dashed=1;dashPattern=8 8;fillColor=#647687;fontColor=#ffffff;strokeColor=#314354;" vertex="1" parent="1">
          <mxGeometry x="310" y="430.75" width="80" height="19" as="geometry" />
        </mxCell>
        <mxCell id="RutTHSJl229O0MzhaNBL-651" value="" style="shape=or;whiteSpace=wrap;html=1;rotation=-90;dashed=1;dashPattern=8 8;fillColor=#647687;fontColor=#ffffff;strokeColor=#314354;" vertex="1" parent="1">
          <mxGeometry x="300" y="430.75" width="80" height="19" as="geometry" />
        </mxCell>
        <mxCell id="RutTHSJl229O0MzhaNBL-652" value="" style="shape=or;whiteSpace=wrap;html=1;rotation=-90;dashed=1;dashPattern=8 8;fillColor=#647687;fontColor=#ffffff;strokeColor=#314354;" vertex="1" parent="1">
          <mxGeometry x="290" y="430.75" width="80" height="19" as="geometry" />
        </mxCell>
        <mxCell id="RutTHSJl229O0MzhaNBL-653" value="" style="endArrow=none;html=1;rounded=0;entryX=1;entryY=0.5;entryDx=0;entryDy=0;entryPerimeter=0;exitX=1;exitY=0.5;exitDx=0;exitDy=0;exitPerimeter=0;dashed=1;dashPattern=8 8;fillColor=#647687;strokeColor=#314354;" edge="1" parent="1" target="RutTHSJl229O0MzhaNBL-652">
          <mxGeometry width="50" height="50" relative="1" as="geometry">
            <mxPoint x="315" y="419.75" as="sourcePoint" />
            <mxPoint x="325" y="399.75" as="targetPoint" />
          </mxGeometry>
        </mxCell>
        <mxCell id="RutTHSJl229O0MzhaNBL-654" value="" style="endArrow=none;html=1;rounded=0;entryX=1;entryY=0.5;entryDx=0;entryDy=0;entryPerimeter=0;exitX=1;exitY=0.5;exitDx=0;exitDy=0;exitPerimeter=0;dashed=1;dashPattern=8 8;fillColor=#647687;strokeColor=#314354;" edge="1" parent="1" target="RutTHSJl229O0MzhaNBL-651">
          <mxGeometry width="50" height="50" relative="1" as="geometry">
            <mxPoint x="325" y="419.75" as="sourcePoint" />
            <mxPoint x="342.5" y="411.75" as="targetPoint" />
          </mxGeometry>
        </mxCell>
        <mxCell id="RutTHSJl229O0MzhaNBL-655" value="" style="endArrow=none;html=1;rounded=0;entryX=1;entryY=0.5;entryDx=0;entryDy=0;entryPerimeter=0;exitX=1;exitY=0.5;exitDx=0;exitDy=0;exitPerimeter=0;dashed=1;dashPattern=8 8;fillColor=#647687;strokeColor=#314354;" edge="1" parent="1" target="RutTHSJl229O0MzhaNBL-650">
          <mxGeometry width="50" height="50" relative="1" as="geometry">
            <mxPoint x="335" y="419.75" as="sourcePoint" />
            <mxPoint x="350" y="420.75" as="targetPoint" />
          </mxGeometry>
        </mxCell>
        <mxCell id="RutTHSJl229O0MzhaNBL-656" value="" style="endArrow=none;html=1;rounded=0;entryX=1;entryY=0.5;entryDx=0;entryDy=0;entryPerimeter=0;exitX=1;exitY=0.5;exitDx=0;exitDy=0;exitPerimeter=0;dashed=1;dashPattern=8 8;fillColor=#647687;strokeColor=#314354;" edge="1" parent="1" target="RutTHSJl229O0MzhaNBL-649">
          <mxGeometry width="50" height="50" relative="1" as="geometry">
            <mxPoint x="345" y="419.75" as="sourcePoint" />
            <mxPoint x="360" y="430.75" as="targetPoint" />
          </mxGeometry>
        </mxCell>
        <mxCell id="RutTHSJl229O0MzhaNBL-657" value="" style="shape=or;whiteSpace=wrap;html=1;rotation=-90;" vertex="1" parent="1">
          <mxGeometry x="305" y="449.75" width="80" height="19" as="geometry" />
        </mxCell>
        <mxCell id="RutTHSJl229O0MzhaNBL-658" value="" style="shape=or;whiteSpace=wrap;html=1;rotation=-90;" vertex="1" parent="1">
          <mxGeometry x="295" y="449.75" width="80" height="19" as="geometry" />
        </mxCell>
        <mxCell id="RutTHSJl229O0MzhaNBL-659" value="" style="shape=or;whiteSpace=wrap;html=1;rotation=-90;" vertex="1" parent="1">
          <mxGeometry x="285" y="449.75" width="80" height="19" as="geometry" />
        </mxCell>
        <mxCell id="RutTHSJl229O0MzhaNBL-660" value="" style="shape=or;whiteSpace=wrap;html=1;rotation=-90;" vertex="1" parent="1">
          <mxGeometry x="275" y="449.75" width="80" height="19" as="geometry" />
        </mxCell>
        <mxCell id="RutTHSJl229O0MzhaNBL-661" value="" style="shape=or;whiteSpace=wrap;html=1;rotation=-90;" vertex="1" parent="1">
          <mxGeometry x="260" y="468.75" width="80" height="19" as="geometry" />
        </mxCell>
        <mxCell id="RutTHSJl229O0MzhaNBL-662" value="" style="shape=or;whiteSpace=wrap;html=1;rotation=-90;" vertex="1" parent="1">
          <mxGeometry x="270" y="468.75" width="80" height="19" as="geometry" />
        </mxCell>
        <mxCell id="RutTHSJl229O0MzhaNBL-663" value="" style="shape=or;whiteSpace=wrap;html=1;rotation=-90;" vertex="1" parent="1">
          <mxGeometry x="280" y="468.75" width="80" height="19" as="geometry" />
        </mxCell>
        <mxCell id="RutTHSJl229O0MzhaNBL-664" value="" style="shape=or;whiteSpace=wrap;html=1;rotation=-90;" vertex="1" parent="1">
          <mxGeometry x="290" y="468.75" width="80" height="19" as="geometry" />
        </mxCell>
        <mxCell id="RutTHSJl229O0MzhaNBL-665" value="" style="endArrow=none;html=1;rounded=0;" edge="1" parent="1">
          <mxGeometry width="50" height="50" relative="1" as="geometry">
            <mxPoint x="340" y="518.75" as="sourcePoint" />
            <mxPoint x="355" y="498.75" as="targetPoint" />
          </mxGeometry>
        </mxCell>
        <mxCell id="RutTHSJl229O0MzhaNBL-666" value="" style="endArrow=none;html=1;rounded=0;entryX=1;entryY=0.5;entryDx=0;entryDy=0;entryPerimeter=0;exitX=1;exitY=0.5;exitDx=0;exitDy=0;exitPerimeter=0;" edge="1" parent="1" source="RutTHSJl229O0MzhaNBL-661" target="RutTHSJl229O0MzhaNBL-660">
          <mxGeometry width="50" height="50" relative="1" as="geometry">
            <mxPoint x="260" y="468.75" as="sourcePoint" />
            <mxPoint x="310" y="418.75" as="targetPoint" />
          </mxGeometry>
        </mxCell>
        <mxCell id="RutTHSJl229O0MzhaNBL-667" value="" style="endArrow=none;html=1;rounded=0;entryX=1;entryY=0.5;entryDx=0;entryDy=0;entryPerimeter=0;exitX=1;exitY=0.5;exitDx=0;exitDy=0;exitPerimeter=0;" edge="1" parent="1" source="RutTHSJl229O0MzhaNBL-662" target="RutTHSJl229O0MzhaNBL-659">
          <mxGeometry width="50" height="50" relative="1" as="geometry">
            <mxPoint x="312.5" y="449.75" as="sourcePoint" />
            <mxPoint x="327.5" y="430.75" as="targetPoint" />
          </mxGeometry>
        </mxCell>
        <mxCell id="RutTHSJl229O0MzhaNBL-668" value="" style="endArrow=none;html=1;rounded=0;entryX=1;entryY=0.5;entryDx=0;entryDy=0;entryPerimeter=0;exitX=1;exitY=0.5;exitDx=0;exitDy=0;exitPerimeter=0;" edge="1" parent="1" source="RutTHSJl229O0MzhaNBL-663" target="RutTHSJl229O0MzhaNBL-658">
          <mxGeometry width="50" height="50" relative="1" as="geometry">
            <mxPoint x="320" y="458.75" as="sourcePoint" />
            <mxPoint x="335" y="439.75" as="targetPoint" />
          </mxGeometry>
        </mxCell>
        <mxCell id="RutTHSJl229O0MzhaNBL-669" value="" style="endArrow=none;html=1;rounded=0;entryX=1;entryY=0.5;entryDx=0;entryDy=0;entryPerimeter=0;exitX=1;exitY=0.5;exitDx=0;exitDy=0;exitPerimeter=0;" edge="1" parent="1" source="RutTHSJl229O0MzhaNBL-664" target="RutTHSJl229O0MzhaNBL-657">
          <mxGeometry width="50" height="50" relative="1" as="geometry">
            <mxPoint x="330" y="468.75" as="sourcePoint" />
            <mxPoint x="345" y="449.75" as="targetPoint" />
          </mxGeometry>
        </mxCell>
        <mxCell id="RutTHSJl229O0MzhaNBL-670" value="" style="endArrow=none;html=1;rounded=0;exitX=-0.01;exitY=1.056;exitDx=0;exitDy=0;exitPerimeter=0;dashed=1;fillColor=#647687;strokeColor=#314354;dashPattern=8 8;" edge="1" parent="1" source="RutTHSJl229O0MzhaNBL-657">
          <mxGeometry width="50" height="50" relative="1" as="geometry">
            <mxPoint x="350" y="528.75" as="sourcePoint" />
            <mxPoint x="370" y="478.75" as="targetPoint" />
          </mxGeometry>
        </mxCell>
        <mxCell id="RutTHSJl229O0MzhaNBL-671" value="" style="shape=or;whiteSpace=wrap;html=1;rotation=-90;dashed=1;dashPattern=8 8;fillColor=#647687;fontColor=#ffffff;strokeColor=#314354;" vertex="1" parent="1">
          <mxGeometry x="565" y="430.5" width="80" height="19" as="geometry" />
        </mxCell>
        <mxCell id="RutTHSJl229O0MzhaNBL-672" value="" style="shape=or;whiteSpace=wrap;html=1;rotation=-90;dashed=1;dashPattern=8 8;fillColor=#647687;fontColor=#ffffff;strokeColor=#314354;" vertex="1" parent="1">
          <mxGeometry x="555" y="430.5" width="80" height="19" as="geometry" />
        </mxCell>
        <mxCell id="RutTHSJl229O0MzhaNBL-673" value="" style="shape=or;whiteSpace=wrap;html=1;rotation=-90;dashed=1;dashPattern=8 8;fillColor=#647687;fontColor=#ffffff;strokeColor=#314354;" vertex="1" parent="1">
          <mxGeometry x="545" y="430.5" width="80" height="19" as="geometry" />
        </mxCell>
        <mxCell id="RutTHSJl229O0MzhaNBL-674" value="" style="shape=or;whiteSpace=wrap;html=1;rotation=-90;dashed=1;dashPattern=8 8;fillColor=#647687;fontColor=#ffffff;strokeColor=#314354;" vertex="1" parent="1">
          <mxGeometry x="535" y="430.5" width="80" height="19" as="geometry" />
        </mxCell>
        <mxCell id="RutTHSJl229O0MzhaNBL-675" value="" style="endArrow=none;html=1;rounded=0;entryX=1;entryY=0.5;entryDx=0;entryDy=0;entryPerimeter=0;exitX=1;exitY=0.5;exitDx=0;exitDy=0;exitPerimeter=0;dashed=1;dashPattern=8 8;fillColor=#647687;strokeColor=#314354;" edge="1" parent="1" target="RutTHSJl229O0MzhaNBL-674">
          <mxGeometry width="50" height="50" relative="1" as="geometry">
            <mxPoint x="560" y="419.5" as="sourcePoint" />
            <mxPoint x="570" y="399.5" as="targetPoint" />
          </mxGeometry>
        </mxCell>
        <mxCell id="RutTHSJl229O0MzhaNBL-676" value="" style="endArrow=none;html=1;rounded=0;entryX=1;entryY=0.5;entryDx=0;entryDy=0;entryPerimeter=0;exitX=1;exitY=0.5;exitDx=0;exitDy=0;exitPerimeter=0;dashed=1;dashPattern=8 8;fillColor=#647687;strokeColor=#314354;" edge="1" parent="1" target="RutTHSJl229O0MzhaNBL-673">
          <mxGeometry width="50" height="50" relative="1" as="geometry">
            <mxPoint x="570" y="419.5" as="sourcePoint" />
            <mxPoint x="587.5" y="411.5" as="targetPoint" />
          </mxGeometry>
        </mxCell>
        <mxCell id="RutTHSJl229O0MzhaNBL-677" value="" style="endArrow=none;html=1;rounded=0;entryX=1;entryY=0.5;entryDx=0;entryDy=0;entryPerimeter=0;exitX=1;exitY=0.5;exitDx=0;exitDy=0;exitPerimeter=0;dashed=1;dashPattern=8 8;fillColor=#647687;strokeColor=#314354;" edge="1" parent="1" target="RutTHSJl229O0MzhaNBL-672">
          <mxGeometry width="50" height="50" relative="1" as="geometry">
            <mxPoint x="580" y="419.5" as="sourcePoint" />
            <mxPoint x="595" y="420.5" as="targetPoint" />
          </mxGeometry>
        </mxCell>
        <mxCell id="RutTHSJl229O0MzhaNBL-678" value="" style="endArrow=none;html=1;rounded=0;entryX=1;entryY=0.5;entryDx=0;entryDy=0;entryPerimeter=0;exitX=1;exitY=0.5;exitDx=0;exitDy=0;exitPerimeter=0;dashed=1;dashPattern=8 8;fillColor=#647687;strokeColor=#314354;" edge="1" parent="1" target="RutTHSJl229O0MzhaNBL-671">
          <mxGeometry width="50" height="50" relative="1" as="geometry">
            <mxPoint x="590" y="419.5" as="sourcePoint" />
            <mxPoint x="605" y="430.5" as="targetPoint" />
          </mxGeometry>
        </mxCell>
        <mxCell id="RutTHSJl229O0MzhaNBL-679" value="" style="shape=or;whiteSpace=wrap;html=1;rotation=-90;" vertex="1" parent="1">
          <mxGeometry x="550" y="449.5" width="80" height="19" as="geometry" />
        </mxCell>
        <mxCell id="RutTHSJl229O0MzhaNBL-680" value="" style="shape=or;whiteSpace=wrap;html=1;rotation=-90;" vertex="1" parent="1">
          <mxGeometry x="540" y="449.5" width="80" height="19" as="geometry" />
        </mxCell>
        <mxCell id="RutTHSJl229O0MzhaNBL-681" value="" style="shape=or;whiteSpace=wrap;html=1;rotation=-90;" vertex="1" parent="1">
          <mxGeometry x="530" y="449.5" width="80" height="19" as="geometry" />
        </mxCell>
        <mxCell id="RutTHSJl229O0MzhaNBL-682" value="" style="shape=or;whiteSpace=wrap;html=1;rotation=-90;" vertex="1" parent="1">
          <mxGeometry x="520" y="449.5" width="80" height="19" as="geometry" />
        </mxCell>
        <mxCell id="RutTHSJl229O0MzhaNBL-683" value="" style="shape=or;whiteSpace=wrap;html=1;rotation=-90;" vertex="1" parent="1">
          <mxGeometry x="505" y="468.5" width="80" height="19" as="geometry" />
        </mxCell>
        <mxCell id="RutTHSJl229O0MzhaNBL-684" value="" style="shape=or;whiteSpace=wrap;html=1;rotation=-90;" vertex="1" parent="1">
          <mxGeometry x="515" y="468.5" width="80" height="19" as="geometry" />
        </mxCell>
        <mxCell id="RutTHSJl229O0MzhaNBL-685" value="" style="shape=or;whiteSpace=wrap;html=1;rotation=-90;" vertex="1" parent="1">
          <mxGeometry x="525" y="468.5" width="80" height="19" as="geometry" />
        </mxCell>
        <mxCell id="RutTHSJl229O0MzhaNBL-686" value="" style="shape=or;whiteSpace=wrap;html=1;rotation=-90;" vertex="1" parent="1">
          <mxGeometry x="535" y="468.5" width="80" height="19" as="geometry" />
        </mxCell>
        <mxCell id="RutTHSJl229O0MzhaNBL-687" value="" style="endArrow=none;html=1;rounded=0;" edge="1" parent="1">
          <mxGeometry width="50" height="50" relative="1" as="geometry">
            <mxPoint x="585" y="518.5" as="sourcePoint" />
            <mxPoint x="600" y="498.5" as="targetPoint" />
          </mxGeometry>
        </mxCell>
        <mxCell id="RutTHSJl229O0MzhaNBL-688" value="" style="endArrow=none;html=1;rounded=0;entryX=1;entryY=0.5;entryDx=0;entryDy=0;entryPerimeter=0;exitX=1;exitY=0.5;exitDx=0;exitDy=0;exitPerimeter=0;" edge="1" parent="1" source="RutTHSJl229O0MzhaNBL-683" target="RutTHSJl229O0MzhaNBL-682">
          <mxGeometry width="50" height="50" relative="1" as="geometry">
            <mxPoint x="505" y="468.5" as="sourcePoint" />
            <mxPoint x="555" y="418.5" as="targetPoint" />
          </mxGeometry>
        </mxCell>
        <mxCell id="RutTHSJl229O0MzhaNBL-689" value="" style="endArrow=none;html=1;rounded=0;entryX=1;entryY=0.5;entryDx=0;entryDy=0;entryPerimeter=0;exitX=1;exitY=0.5;exitDx=0;exitDy=0;exitPerimeter=0;" edge="1" parent="1" source="RutTHSJl229O0MzhaNBL-684" target="RutTHSJl229O0MzhaNBL-681">
          <mxGeometry width="50" height="50" relative="1" as="geometry">
            <mxPoint x="557.5" y="449.5" as="sourcePoint" />
            <mxPoint x="572.5" y="430.5" as="targetPoint" />
          </mxGeometry>
        </mxCell>
        <mxCell id="RutTHSJl229O0MzhaNBL-690" value="" style="endArrow=none;html=1;rounded=0;entryX=1;entryY=0.5;entryDx=0;entryDy=0;entryPerimeter=0;exitX=1;exitY=0.5;exitDx=0;exitDy=0;exitPerimeter=0;" edge="1" parent="1" source="RutTHSJl229O0MzhaNBL-685" target="RutTHSJl229O0MzhaNBL-680">
          <mxGeometry width="50" height="50" relative="1" as="geometry">
            <mxPoint x="565" y="458.5" as="sourcePoint" />
            <mxPoint x="580" y="439.5" as="targetPoint" />
          </mxGeometry>
        </mxCell>
        <mxCell id="RutTHSJl229O0MzhaNBL-691" value="" style="endArrow=none;html=1;rounded=0;entryX=1;entryY=0.5;entryDx=0;entryDy=0;entryPerimeter=0;exitX=1;exitY=0.5;exitDx=0;exitDy=0;exitPerimeter=0;" edge="1" parent="1" source="RutTHSJl229O0MzhaNBL-686" target="RutTHSJl229O0MzhaNBL-679">
          <mxGeometry width="50" height="50" relative="1" as="geometry">
            <mxPoint x="575" y="468.5" as="sourcePoint" />
            <mxPoint x="590" y="449.5" as="targetPoint" />
          </mxGeometry>
        </mxCell>
        <mxCell id="RutTHSJl229O0MzhaNBL-692" value="" style="endArrow=none;html=1;rounded=0;exitX=-0.01;exitY=1.056;exitDx=0;exitDy=0;exitPerimeter=0;dashed=1;fillColor=#647687;strokeColor=#314354;dashPattern=8 8;" edge="1" parent="1" source="RutTHSJl229O0MzhaNBL-679">
          <mxGeometry width="50" height="50" relative="1" as="geometry">
            <mxPoint x="595" y="528.5" as="sourcePoint" />
            <mxPoint x="615" y="478.5" as="targetPoint" />
          </mxGeometry>
        </mxCell>
        <mxCell id="RutTHSJl229O0MzhaNBL-693" value="" style="shape=or;whiteSpace=wrap;html=1;rotation=-90;dashed=1;dashPattern=8 8;fillColor=#647687;fontColor=#ffffff;strokeColor=#314354;" vertex="1" parent="1">
          <mxGeometry x="190" y="591" width="80" height="19" as="geometry" />
        </mxCell>
        <mxCell id="RutTHSJl229O0MzhaNBL-694" value="" style="shape=or;whiteSpace=wrap;html=1;rotation=-90;dashed=1;dashPattern=8 8;fillColor=#647687;fontColor=#ffffff;strokeColor=#314354;" vertex="1" parent="1">
          <mxGeometry x="180" y="591" width="80" height="19" as="geometry" />
        </mxCell>
        <mxCell id="RutTHSJl229O0MzhaNBL-695" value="" style="shape=or;whiteSpace=wrap;html=1;rotation=-90;dashed=1;dashPattern=8 8;fillColor=#647687;fontColor=#ffffff;strokeColor=#314354;" vertex="1" parent="1">
          <mxGeometry x="170" y="591" width="80" height="19" as="geometry" />
        </mxCell>
        <mxCell id="RutTHSJl229O0MzhaNBL-696" value="" style="shape=or;whiteSpace=wrap;html=1;rotation=-90;dashed=1;dashPattern=8 8;fillColor=#647687;fontColor=#ffffff;strokeColor=#314354;" vertex="1" parent="1">
          <mxGeometry x="160" y="591" width="80" height="19" as="geometry" />
        </mxCell>
        <mxCell id="RutTHSJl229O0MzhaNBL-697" value="" style="endArrow=none;html=1;rounded=0;entryX=1;entryY=0.5;entryDx=0;entryDy=0;entryPerimeter=0;exitX=1;exitY=0.5;exitDx=0;exitDy=0;exitPerimeter=0;dashed=1;dashPattern=8 8;fillColor=#647687;strokeColor=#314354;" edge="1" parent="1" target="RutTHSJl229O0MzhaNBL-696">
          <mxGeometry width="50" height="50" relative="1" as="geometry">
            <mxPoint x="185" y="580" as="sourcePoint" />
            <mxPoint x="195" y="560" as="targetPoint" />
          </mxGeometry>
        </mxCell>
        <mxCell id="RutTHSJl229O0MzhaNBL-698" value="" style="endArrow=none;html=1;rounded=0;entryX=1;entryY=0.5;entryDx=0;entryDy=0;entryPerimeter=0;exitX=1;exitY=0.5;exitDx=0;exitDy=0;exitPerimeter=0;dashed=1;dashPattern=8 8;fillColor=#647687;strokeColor=#314354;" edge="1" parent="1" target="RutTHSJl229O0MzhaNBL-695">
          <mxGeometry width="50" height="50" relative="1" as="geometry">
            <mxPoint x="195" y="580" as="sourcePoint" />
            <mxPoint x="212.5" y="572" as="targetPoint" />
          </mxGeometry>
        </mxCell>
        <mxCell id="RutTHSJl229O0MzhaNBL-699" value="" style="endArrow=none;html=1;rounded=0;entryX=1;entryY=0.5;entryDx=0;entryDy=0;entryPerimeter=0;exitX=1;exitY=0.5;exitDx=0;exitDy=0;exitPerimeter=0;dashed=1;dashPattern=8 8;fillColor=#647687;strokeColor=#314354;" edge="1" parent="1" target="RutTHSJl229O0MzhaNBL-694">
          <mxGeometry width="50" height="50" relative="1" as="geometry">
            <mxPoint x="205" y="580" as="sourcePoint" />
            <mxPoint x="220" y="581" as="targetPoint" />
          </mxGeometry>
        </mxCell>
        <mxCell id="RutTHSJl229O0MzhaNBL-700" value="" style="endArrow=none;html=1;rounded=0;entryX=1;entryY=0.5;entryDx=0;entryDy=0;entryPerimeter=0;exitX=1;exitY=0.5;exitDx=0;exitDy=0;exitPerimeter=0;dashed=1;dashPattern=8 8;fillColor=#647687;strokeColor=#314354;" edge="1" parent="1" target="RutTHSJl229O0MzhaNBL-693">
          <mxGeometry width="50" height="50" relative="1" as="geometry">
            <mxPoint x="215" y="580" as="sourcePoint" />
            <mxPoint x="230" y="591" as="targetPoint" />
          </mxGeometry>
        </mxCell>
        <mxCell id="RutTHSJl229O0MzhaNBL-701" value="" style="shape=or;whiteSpace=wrap;html=1;rotation=-90;" vertex="1" parent="1">
          <mxGeometry x="175" y="610" width="80" height="19" as="geometry" />
        </mxCell>
        <mxCell id="RutTHSJl229O0MzhaNBL-702" value="" style="shape=or;whiteSpace=wrap;html=1;rotation=-90;" vertex="1" parent="1">
          <mxGeometry x="165" y="610" width="80" height="19" as="geometry" />
        </mxCell>
        <mxCell id="RutTHSJl229O0MzhaNBL-703" value="" style="shape=or;whiteSpace=wrap;html=1;rotation=-90;" vertex="1" parent="1">
          <mxGeometry x="155" y="610" width="80" height="19" as="geometry" />
        </mxCell>
        <mxCell id="RutTHSJl229O0MzhaNBL-704" value="" style="shape=or;whiteSpace=wrap;html=1;rotation=-90;" vertex="1" parent="1">
          <mxGeometry x="145" y="610" width="80" height="19" as="geometry" />
        </mxCell>
        <mxCell id="RutTHSJl229O0MzhaNBL-705" value="" style="shape=or;whiteSpace=wrap;html=1;rotation=-90;" vertex="1" parent="1">
          <mxGeometry x="130" y="629" width="80" height="19" as="geometry" />
        </mxCell>
        <mxCell id="RutTHSJl229O0MzhaNBL-706" value="" style="shape=or;whiteSpace=wrap;html=1;rotation=-90;" vertex="1" parent="1">
          <mxGeometry x="140" y="629" width="80" height="19" as="geometry" />
        </mxCell>
        <mxCell id="RutTHSJl229O0MzhaNBL-707" value="" style="shape=or;whiteSpace=wrap;html=1;rotation=-90;" vertex="1" parent="1">
          <mxGeometry x="150" y="629" width="80" height="19" as="geometry" />
        </mxCell>
        <mxCell id="RutTHSJl229O0MzhaNBL-708" value="" style="shape=or;whiteSpace=wrap;html=1;rotation=-90;" vertex="1" parent="1">
          <mxGeometry x="160" y="629" width="80" height="19" as="geometry" />
        </mxCell>
        <mxCell id="RutTHSJl229O0MzhaNBL-709" value="" style="endArrow=none;dashed=1;html=1;dashPattern=1 3;strokeWidth=2;rounded=0;" edge="1" parent="1">
          <mxGeometry width="50" height="50" relative="1" as="geometry">
            <mxPoint x="230" y="659" as="sourcePoint" />
            <mxPoint x="280" y="659.5" as="targetPoint" />
          </mxGeometry>
        </mxCell>
        <mxCell id="RutTHSJl229O0MzhaNBL-710" value="" style="shape=or;whiteSpace=wrap;html=1;rotation=-90;" vertex="1" parent="1">
          <mxGeometry x="260" y="629" width="80" height="19" as="geometry" />
        </mxCell>
        <mxCell id="RutTHSJl229O0MzhaNBL-711" value="" style="shape=or;whiteSpace=wrap;html=1;rotation=-90;" vertex="1" parent="1">
          <mxGeometry x="270" y="629" width="80" height="19" as="geometry" />
        </mxCell>
        <mxCell id="RutTHSJl229O0MzhaNBL-712" value="" style="shape=or;whiteSpace=wrap;html=1;rotation=-90;" vertex="1" parent="1">
          <mxGeometry x="280" y="629" width="80" height="19" as="geometry" />
        </mxCell>
        <mxCell id="RutTHSJl229O0MzhaNBL-713" value="" style="shape=or;whiteSpace=wrap;html=1;rotation=-90;" vertex="1" parent="1">
          <mxGeometry x="290" y="629" width="80" height="19" as="geometry" />
        </mxCell>
        <mxCell id="RutTHSJl229O0MzhaNBL-714" value="" style="shape=or;whiteSpace=wrap;html=1;rotation=-90;" vertex="1" parent="1">
          <mxGeometry x="505" y="629" width="80" height="19" as="geometry" />
        </mxCell>
        <mxCell id="RutTHSJl229O0MzhaNBL-715" value="" style="shape=or;whiteSpace=wrap;html=1;rotation=-90;" vertex="1" parent="1">
          <mxGeometry x="515" y="629" width="80" height="19" as="geometry" />
        </mxCell>
        <mxCell id="RutTHSJl229O0MzhaNBL-716" value="" style="shape=or;whiteSpace=wrap;html=1;rotation=-90;" vertex="1" parent="1">
          <mxGeometry x="525" y="629" width="80" height="19" as="geometry" />
        </mxCell>
        <mxCell id="RutTHSJl229O0MzhaNBL-717" value="" style="shape=or;whiteSpace=wrap;html=1;rotation=-90;" vertex="1" parent="1">
          <mxGeometry x="535" y="629" width="80" height="19" as="geometry" />
        </mxCell>
        <mxCell id="RutTHSJl229O0MzhaNBL-718" value="" style="endArrow=none;dashed=1;html=1;dashPattern=1 3;strokeWidth=2;rounded=0;" edge="1" parent="1">
          <mxGeometry width="50" height="50" relative="1" as="geometry">
            <mxPoint x="370" y="660" as="sourcePoint" />
            <mxPoint x="520" y="660" as="targetPoint" />
          </mxGeometry>
        </mxCell>
        <mxCell id="RutTHSJl229O0MzhaNBL-719" value="" style="endArrow=none;html=1;rounded=0;" edge="1" parent="1">
          <mxGeometry width="50" height="50" relative="1" as="geometry">
            <mxPoint x="210" y="679" as="sourcePoint" />
            <mxPoint x="225" y="659" as="targetPoint" />
          </mxGeometry>
        </mxCell>
        <mxCell id="RutTHSJl229O0MzhaNBL-720" value="" style="endArrow=none;html=1;rounded=0;entryX=1;entryY=0.5;entryDx=0;entryDy=0;entryPerimeter=0;exitX=1;exitY=0.5;exitDx=0;exitDy=0;exitPerimeter=0;" edge="1" parent="1" source="RutTHSJl229O0MzhaNBL-705" target="RutTHSJl229O0MzhaNBL-704">
          <mxGeometry width="50" height="50" relative="1" as="geometry">
            <mxPoint x="130" y="629" as="sourcePoint" />
            <mxPoint x="180" y="579" as="targetPoint" />
          </mxGeometry>
        </mxCell>
        <mxCell id="RutTHSJl229O0MzhaNBL-721" value="" style="endArrow=none;html=1;rounded=0;entryX=1;entryY=0.5;entryDx=0;entryDy=0;entryPerimeter=0;exitX=1;exitY=0.5;exitDx=0;exitDy=0;exitPerimeter=0;" edge="1" parent="1" source="RutTHSJl229O0MzhaNBL-706" target="RutTHSJl229O0MzhaNBL-703">
          <mxGeometry width="50" height="50" relative="1" as="geometry">
            <mxPoint x="182.5" y="610" as="sourcePoint" />
            <mxPoint x="197.5" y="591" as="targetPoint" />
          </mxGeometry>
        </mxCell>
        <mxCell id="RutTHSJl229O0MzhaNBL-722" value="" style="endArrow=none;html=1;rounded=0;entryX=1;entryY=0.5;entryDx=0;entryDy=0;entryPerimeter=0;exitX=1;exitY=0.5;exitDx=0;exitDy=0;exitPerimeter=0;" edge="1" parent="1" source="RutTHSJl229O0MzhaNBL-707" target="RutTHSJl229O0MzhaNBL-702">
          <mxGeometry width="50" height="50" relative="1" as="geometry">
            <mxPoint x="190" y="619" as="sourcePoint" />
            <mxPoint x="205" y="600" as="targetPoint" />
          </mxGeometry>
        </mxCell>
        <mxCell id="RutTHSJl229O0MzhaNBL-723" value="" style="endArrow=none;html=1;rounded=0;entryX=1;entryY=0.5;entryDx=0;entryDy=0;entryPerimeter=0;exitX=1;exitY=0.5;exitDx=0;exitDy=0;exitPerimeter=0;" edge="1" parent="1" source="RutTHSJl229O0MzhaNBL-708" target="RutTHSJl229O0MzhaNBL-701">
          <mxGeometry width="50" height="50" relative="1" as="geometry">
            <mxPoint x="200" y="629" as="sourcePoint" />
            <mxPoint x="215" y="610" as="targetPoint" />
          </mxGeometry>
        </mxCell>
        <mxCell id="RutTHSJl229O0MzhaNBL-724" value="" style="endArrow=none;html=1;rounded=0;exitX=-0.01;exitY=1.056;exitDx=0;exitDy=0;exitPerimeter=0;dashed=1;fillColor=#647687;strokeColor=#314354;dashPattern=8 8;" edge="1" parent="1" source="RutTHSJl229O0MzhaNBL-701">
          <mxGeometry width="50" height="50" relative="1" as="geometry">
            <mxPoint x="220" y="689" as="sourcePoint" />
            <mxPoint x="240" y="639" as="targetPoint" />
          </mxGeometry>
        </mxCell>
        <mxCell id="RutTHSJl229O0MzhaNBL-725" value="" style="shape=or;whiteSpace=wrap;html=1;rotation=-90;dashed=1;dashPattern=8 8;fillColor=#647687;fontColor=#ffffff;strokeColor=#314354;" vertex="1" parent="1">
          <mxGeometry x="320" y="590.75" width="80" height="19" as="geometry" />
        </mxCell>
        <mxCell id="RutTHSJl229O0MzhaNBL-726" value="" style="shape=or;whiteSpace=wrap;html=1;rotation=-90;dashed=1;dashPattern=8 8;fillColor=#647687;fontColor=#ffffff;strokeColor=#314354;" vertex="1" parent="1">
          <mxGeometry x="310" y="590.75" width="80" height="19" as="geometry" />
        </mxCell>
        <mxCell id="RutTHSJl229O0MzhaNBL-727" value="" style="shape=or;whiteSpace=wrap;html=1;rotation=-90;dashed=1;dashPattern=8 8;fillColor=#647687;fontColor=#ffffff;strokeColor=#314354;" vertex="1" parent="1">
          <mxGeometry x="300" y="590.75" width="80" height="19" as="geometry" />
        </mxCell>
        <mxCell id="RutTHSJl229O0MzhaNBL-728" value="" style="shape=or;whiteSpace=wrap;html=1;rotation=-90;dashed=1;dashPattern=8 8;fillColor=#647687;fontColor=#ffffff;strokeColor=#314354;" vertex="1" parent="1">
          <mxGeometry x="290" y="590.75" width="80" height="19" as="geometry" />
        </mxCell>
        <mxCell id="RutTHSJl229O0MzhaNBL-729" value="" style="endArrow=none;html=1;rounded=0;entryX=1;entryY=0.5;entryDx=0;entryDy=0;entryPerimeter=0;exitX=1;exitY=0.5;exitDx=0;exitDy=0;exitPerimeter=0;dashed=1;dashPattern=8 8;fillColor=#647687;strokeColor=#314354;" edge="1" parent="1" target="RutTHSJl229O0MzhaNBL-728">
          <mxGeometry width="50" height="50" relative="1" as="geometry">
            <mxPoint x="315" y="579.75" as="sourcePoint" />
            <mxPoint x="325" y="559.75" as="targetPoint" />
          </mxGeometry>
        </mxCell>
        <mxCell id="RutTHSJl229O0MzhaNBL-730" value="" style="endArrow=none;html=1;rounded=0;entryX=1;entryY=0.5;entryDx=0;entryDy=0;entryPerimeter=0;exitX=1;exitY=0.5;exitDx=0;exitDy=0;exitPerimeter=0;dashed=1;dashPattern=8 8;fillColor=#647687;strokeColor=#314354;" edge="1" parent="1" target="RutTHSJl229O0MzhaNBL-727">
          <mxGeometry width="50" height="50" relative="1" as="geometry">
            <mxPoint x="325" y="579.75" as="sourcePoint" />
            <mxPoint x="342.5" y="571.75" as="targetPoint" />
          </mxGeometry>
        </mxCell>
        <mxCell id="RutTHSJl229O0MzhaNBL-731" value="" style="endArrow=none;html=1;rounded=0;entryX=1;entryY=0.5;entryDx=0;entryDy=0;entryPerimeter=0;exitX=1;exitY=0.5;exitDx=0;exitDy=0;exitPerimeter=0;dashed=1;dashPattern=8 8;fillColor=#647687;strokeColor=#314354;" edge="1" parent="1" target="RutTHSJl229O0MzhaNBL-726">
          <mxGeometry width="50" height="50" relative="1" as="geometry">
            <mxPoint x="335" y="579.75" as="sourcePoint" />
            <mxPoint x="350" y="580.75" as="targetPoint" />
          </mxGeometry>
        </mxCell>
        <mxCell id="RutTHSJl229O0MzhaNBL-732" value="" style="endArrow=none;html=1;rounded=0;entryX=1;entryY=0.5;entryDx=0;entryDy=0;entryPerimeter=0;exitX=1;exitY=0.5;exitDx=0;exitDy=0;exitPerimeter=0;dashed=1;dashPattern=8 8;fillColor=#647687;strokeColor=#314354;" edge="1" parent="1" target="RutTHSJl229O0MzhaNBL-725">
          <mxGeometry width="50" height="50" relative="1" as="geometry">
            <mxPoint x="345" y="579.75" as="sourcePoint" />
            <mxPoint x="360" y="590.75" as="targetPoint" />
          </mxGeometry>
        </mxCell>
        <mxCell id="RutTHSJl229O0MzhaNBL-733" value="" style="shape=or;whiteSpace=wrap;html=1;rotation=-90;" vertex="1" parent="1">
          <mxGeometry x="305" y="609.75" width="80" height="19" as="geometry" />
        </mxCell>
        <mxCell id="RutTHSJl229O0MzhaNBL-734" value="" style="shape=or;whiteSpace=wrap;html=1;rotation=-90;" vertex="1" parent="1">
          <mxGeometry x="295" y="609.75" width="80" height="19" as="geometry" />
        </mxCell>
        <mxCell id="RutTHSJl229O0MzhaNBL-735" value="" style="shape=or;whiteSpace=wrap;html=1;rotation=-90;" vertex="1" parent="1">
          <mxGeometry x="285" y="609.75" width="80" height="19" as="geometry" />
        </mxCell>
        <mxCell id="RutTHSJl229O0MzhaNBL-736" value="" style="shape=or;whiteSpace=wrap;html=1;rotation=-90;" vertex="1" parent="1">
          <mxGeometry x="275" y="609.75" width="80" height="19" as="geometry" />
        </mxCell>
        <mxCell id="RutTHSJl229O0MzhaNBL-737" value="" style="shape=or;whiteSpace=wrap;html=1;rotation=-90;" vertex="1" parent="1">
          <mxGeometry x="260" y="628.75" width="80" height="19" as="geometry" />
        </mxCell>
        <mxCell id="RutTHSJl229O0MzhaNBL-738" value="" style="shape=or;whiteSpace=wrap;html=1;rotation=-90;" vertex="1" parent="1">
          <mxGeometry x="270" y="628.75" width="80" height="19" as="geometry" />
        </mxCell>
        <mxCell id="RutTHSJl229O0MzhaNBL-739" value="" style="shape=or;whiteSpace=wrap;html=1;rotation=-90;" vertex="1" parent="1">
          <mxGeometry x="280" y="628.75" width="80" height="19" as="geometry" />
        </mxCell>
        <mxCell id="RutTHSJl229O0MzhaNBL-740" value="" style="shape=or;whiteSpace=wrap;html=1;rotation=-90;" vertex="1" parent="1">
          <mxGeometry x="290" y="628.75" width="80" height="19" as="geometry" />
        </mxCell>
        <mxCell id="RutTHSJl229O0MzhaNBL-741" value="" style="endArrow=none;html=1;rounded=0;" edge="1" parent="1">
          <mxGeometry width="50" height="50" relative="1" as="geometry">
            <mxPoint x="340" y="678.75" as="sourcePoint" />
            <mxPoint x="355" y="658.75" as="targetPoint" />
          </mxGeometry>
        </mxCell>
        <mxCell id="RutTHSJl229O0MzhaNBL-742" value="" style="endArrow=none;html=1;rounded=0;entryX=1;entryY=0.5;entryDx=0;entryDy=0;entryPerimeter=0;exitX=1;exitY=0.5;exitDx=0;exitDy=0;exitPerimeter=0;" edge="1" parent="1" source="RutTHSJl229O0MzhaNBL-737" target="RutTHSJl229O0MzhaNBL-736">
          <mxGeometry width="50" height="50" relative="1" as="geometry">
            <mxPoint x="260" y="628.75" as="sourcePoint" />
            <mxPoint x="310" y="578.75" as="targetPoint" />
          </mxGeometry>
        </mxCell>
        <mxCell id="RutTHSJl229O0MzhaNBL-743" value="" style="endArrow=none;html=1;rounded=0;entryX=1;entryY=0.5;entryDx=0;entryDy=0;entryPerimeter=0;exitX=1;exitY=0.5;exitDx=0;exitDy=0;exitPerimeter=0;" edge="1" parent="1" source="RutTHSJl229O0MzhaNBL-738" target="RutTHSJl229O0MzhaNBL-735">
          <mxGeometry width="50" height="50" relative="1" as="geometry">
            <mxPoint x="312.5" y="609.75" as="sourcePoint" />
            <mxPoint x="327.5" y="590.75" as="targetPoint" />
          </mxGeometry>
        </mxCell>
        <mxCell id="RutTHSJl229O0MzhaNBL-744" value="" style="endArrow=none;html=1;rounded=0;entryX=1;entryY=0.5;entryDx=0;entryDy=0;entryPerimeter=0;exitX=1;exitY=0.5;exitDx=0;exitDy=0;exitPerimeter=0;" edge="1" parent="1" source="RutTHSJl229O0MzhaNBL-739" target="RutTHSJl229O0MzhaNBL-734">
          <mxGeometry width="50" height="50" relative="1" as="geometry">
            <mxPoint x="320" y="618.75" as="sourcePoint" />
            <mxPoint x="335" y="599.75" as="targetPoint" />
          </mxGeometry>
        </mxCell>
        <mxCell id="RutTHSJl229O0MzhaNBL-745" value="" style="endArrow=none;html=1;rounded=0;entryX=1;entryY=0.5;entryDx=0;entryDy=0;entryPerimeter=0;exitX=1;exitY=0.5;exitDx=0;exitDy=0;exitPerimeter=0;" edge="1" parent="1" source="RutTHSJl229O0MzhaNBL-740" target="RutTHSJl229O0MzhaNBL-733">
          <mxGeometry width="50" height="50" relative="1" as="geometry">
            <mxPoint x="330" y="628.75" as="sourcePoint" />
            <mxPoint x="345" y="609.75" as="targetPoint" />
          </mxGeometry>
        </mxCell>
        <mxCell id="RutTHSJl229O0MzhaNBL-746" value="" style="endArrow=none;html=1;rounded=0;exitX=-0.01;exitY=1.056;exitDx=0;exitDy=0;exitPerimeter=0;dashed=1;fillColor=#647687;strokeColor=#314354;dashPattern=8 8;" edge="1" parent="1" source="RutTHSJl229O0MzhaNBL-733">
          <mxGeometry width="50" height="50" relative="1" as="geometry">
            <mxPoint x="350" y="688.75" as="sourcePoint" />
            <mxPoint x="370" y="638.75" as="targetPoint" />
          </mxGeometry>
        </mxCell>
        <mxCell id="RutTHSJl229O0MzhaNBL-747" value="" style="shape=or;whiteSpace=wrap;html=1;rotation=-90;dashed=1;dashPattern=8 8;fillColor=#647687;fontColor=#ffffff;strokeColor=#314354;" vertex="1" parent="1">
          <mxGeometry x="565" y="590.5" width="80" height="19" as="geometry" />
        </mxCell>
        <mxCell id="RutTHSJl229O0MzhaNBL-748" value="" style="shape=or;whiteSpace=wrap;html=1;rotation=-90;dashed=1;dashPattern=8 8;fillColor=#647687;fontColor=#ffffff;strokeColor=#314354;" vertex="1" parent="1">
          <mxGeometry x="555" y="590.5" width="80" height="19" as="geometry" />
        </mxCell>
        <mxCell id="RutTHSJl229O0MzhaNBL-749" value="" style="shape=or;whiteSpace=wrap;html=1;rotation=-90;dashed=1;dashPattern=8 8;fillColor=#647687;fontColor=#ffffff;strokeColor=#314354;" vertex="1" parent="1">
          <mxGeometry x="545" y="590.5" width="80" height="19" as="geometry" />
        </mxCell>
        <mxCell id="RutTHSJl229O0MzhaNBL-750" value="" style="shape=or;whiteSpace=wrap;html=1;rotation=-90;dashed=1;dashPattern=8 8;fillColor=#647687;fontColor=#ffffff;strokeColor=#314354;" vertex="1" parent="1">
          <mxGeometry x="535" y="590.5" width="80" height="19" as="geometry" />
        </mxCell>
        <mxCell id="RutTHSJl229O0MzhaNBL-751" value="" style="endArrow=none;html=1;rounded=0;entryX=1;entryY=0.5;entryDx=0;entryDy=0;entryPerimeter=0;exitX=1;exitY=0.5;exitDx=0;exitDy=0;exitPerimeter=0;dashed=1;dashPattern=8 8;fillColor=#647687;strokeColor=#314354;" edge="1" parent="1" target="RutTHSJl229O0MzhaNBL-750">
          <mxGeometry width="50" height="50" relative="1" as="geometry">
            <mxPoint x="560" y="579.5" as="sourcePoint" />
            <mxPoint x="570" y="559.5" as="targetPoint" />
          </mxGeometry>
        </mxCell>
        <mxCell id="RutTHSJl229O0MzhaNBL-752" value="" style="endArrow=none;html=1;rounded=0;entryX=1;entryY=0.5;entryDx=0;entryDy=0;entryPerimeter=0;exitX=1;exitY=0.5;exitDx=0;exitDy=0;exitPerimeter=0;dashed=1;dashPattern=8 8;fillColor=#647687;strokeColor=#314354;" edge="1" parent="1" target="RutTHSJl229O0MzhaNBL-749">
          <mxGeometry width="50" height="50" relative="1" as="geometry">
            <mxPoint x="570" y="579.5" as="sourcePoint" />
            <mxPoint x="587.5" y="571.5" as="targetPoint" />
          </mxGeometry>
        </mxCell>
        <mxCell id="RutTHSJl229O0MzhaNBL-753" value="" style="endArrow=none;html=1;rounded=0;entryX=1;entryY=0.5;entryDx=0;entryDy=0;entryPerimeter=0;exitX=1;exitY=0.5;exitDx=0;exitDy=0;exitPerimeter=0;dashed=1;dashPattern=8 8;fillColor=#647687;strokeColor=#314354;" edge="1" parent="1" target="RutTHSJl229O0MzhaNBL-748">
          <mxGeometry width="50" height="50" relative="1" as="geometry">
            <mxPoint x="580" y="579.5" as="sourcePoint" />
            <mxPoint x="595" y="580.5" as="targetPoint" />
          </mxGeometry>
        </mxCell>
        <mxCell id="RutTHSJl229O0MzhaNBL-754" value="" style="endArrow=none;html=1;rounded=0;entryX=1;entryY=0.5;entryDx=0;entryDy=0;entryPerimeter=0;exitX=1;exitY=0.5;exitDx=0;exitDy=0;exitPerimeter=0;dashed=1;dashPattern=8 8;fillColor=#647687;strokeColor=#314354;" edge="1" parent="1" target="RutTHSJl229O0MzhaNBL-747">
          <mxGeometry width="50" height="50" relative="1" as="geometry">
            <mxPoint x="590" y="579.5" as="sourcePoint" />
            <mxPoint x="605" y="590.5" as="targetPoint" />
          </mxGeometry>
        </mxCell>
        <mxCell id="RutTHSJl229O0MzhaNBL-755" value="" style="shape=or;whiteSpace=wrap;html=1;rotation=-90;" vertex="1" parent="1">
          <mxGeometry x="550" y="609.5" width="80" height="19" as="geometry" />
        </mxCell>
        <mxCell id="RutTHSJl229O0MzhaNBL-756" value="" style="shape=or;whiteSpace=wrap;html=1;rotation=-90;" vertex="1" parent="1">
          <mxGeometry x="540" y="609.5" width="80" height="19" as="geometry" />
        </mxCell>
        <mxCell id="RutTHSJl229O0MzhaNBL-757" value="" style="shape=or;whiteSpace=wrap;html=1;rotation=-90;" vertex="1" parent="1">
          <mxGeometry x="530" y="609.5" width="80" height="19" as="geometry" />
        </mxCell>
        <mxCell id="RutTHSJl229O0MzhaNBL-758" value="" style="shape=or;whiteSpace=wrap;html=1;rotation=-90;" vertex="1" parent="1">
          <mxGeometry x="520" y="609.5" width="80" height="19" as="geometry" />
        </mxCell>
        <mxCell id="RutTHSJl229O0MzhaNBL-759" value="" style="shape=or;whiteSpace=wrap;html=1;rotation=-90;" vertex="1" parent="1">
          <mxGeometry x="505" y="628.5" width="80" height="19" as="geometry" />
        </mxCell>
        <mxCell id="RutTHSJl229O0MzhaNBL-760" value="" style="shape=or;whiteSpace=wrap;html=1;rotation=-90;" vertex="1" parent="1">
          <mxGeometry x="515" y="628.5" width="80" height="19" as="geometry" />
        </mxCell>
        <mxCell id="RutTHSJl229O0MzhaNBL-761" value="" style="shape=or;whiteSpace=wrap;html=1;rotation=-90;" vertex="1" parent="1">
          <mxGeometry x="525" y="628.5" width="80" height="19" as="geometry" />
        </mxCell>
        <mxCell id="RutTHSJl229O0MzhaNBL-762" value="" style="shape=or;whiteSpace=wrap;html=1;rotation=-90;" vertex="1" parent="1">
          <mxGeometry x="535" y="628.5" width="80" height="19" as="geometry" />
        </mxCell>
        <mxCell id="RutTHSJl229O0MzhaNBL-763" value="" style="endArrow=none;html=1;rounded=0;" edge="1" parent="1">
          <mxGeometry width="50" height="50" relative="1" as="geometry">
            <mxPoint x="585" y="678.5" as="sourcePoint" />
            <mxPoint x="600" y="658.5" as="targetPoint" />
          </mxGeometry>
        </mxCell>
        <mxCell id="RutTHSJl229O0MzhaNBL-764" value="" style="endArrow=none;html=1;rounded=0;entryX=1;entryY=0.5;entryDx=0;entryDy=0;entryPerimeter=0;exitX=1;exitY=0.5;exitDx=0;exitDy=0;exitPerimeter=0;" edge="1" parent="1" source="RutTHSJl229O0MzhaNBL-759" target="RutTHSJl229O0MzhaNBL-758">
          <mxGeometry width="50" height="50" relative="1" as="geometry">
            <mxPoint x="505" y="628.5" as="sourcePoint" />
            <mxPoint x="555" y="578.5" as="targetPoint" />
          </mxGeometry>
        </mxCell>
        <mxCell id="RutTHSJl229O0MzhaNBL-765" value="" style="endArrow=none;html=1;rounded=0;entryX=1;entryY=0.5;entryDx=0;entryDy=0;entryPerimeter=0;exitX=1;exitY=0.5;exitDx=0;exitDy=0;exitPerimeter=0;" edge="1" parent="1" source="RutTHSJl229O0MzhaNBL-760" target="RutTHSJl229O0MzhaNBL-757">
          <mxGeometry width="50" height="50" relative="1" as="geometry">
            <mxPoint x="557.5" y="609.5" as="sourcePoint" />
            <mxPoint x="572.5" y="590.5" as="targetPoint" />
          </mxGeometry>
        </mxCell>
        <mxCell id="RutTHSJl229O0MzhaNBL-766" value="" style="endArrow=none;html=1;rounded=0;entryX=1;entryY=0.5;entryDx=0;entryDy=0;entryPerimeter=0;exitX=1;exitY=0.5;exitDx=0;exitDy=0;exitPerimeter=0;" edge="1" parent="1" source="RutTHSJl229O0MzhaNBL-761" target="RutTHSJl229O0MzhaNBL-756">
          <mxGeometry width="50" height="50" relative="1" as="geometry">
            <mxPoint x="565" y="618.5" as="sourcePoint" />
            <mxPoint x="580" y="599.5" as="targetPoint" />
          </mxGeometry>
        </mxCell>
        <mxCell id="RutTHSJl229O0MzhaNBL-767" value="" style="endArrow=none;html=1;rounded=0;entryX=1;entryY=0.5;entryDx=0;entryDy=0;entryPerimeter=0;exitX=1;exitY=0.5;exitDx=0;exitDy=0;exitPerimeter=0;" edge="1" parent="1" source="RutTHSJl229O0MzhaNBL-762" target="RutTHSJl229O0MzhaNBL-755">
          <mxGeometry width="50" height="50" relative="1" as="geometry">
            <mxPoint x="575" y="628.5" as="sourcePoint" />
            <mxPoint x="590" y="609.5" as="targetPoint" />
          </mxGeometry>
        </mxCell>
        <mxCell id="RutTHSJl229O0MzhaNBL-768" value="" style="endArrow=none;html=1;rounded=0;exitX=-0.01;exitY=1.056;exitDx=0;exitDy=0;exitPerimeter=0;dashed=1;fillColor=#647687;strokeColor=#314354;dashPattern=8 8;" edge="1" parent="1" source="RutTHSJl229O0MzhaNBL-755">
          <mxGeometry width="50" height="50" relative="1" as="geometry">
            <mxPoint x="595" y="688.5" as="sourcePoint" />
            <mxPoint x="615" y="638.5" as="targetPoint" />
          </mxGeometry>
        </mxCell>
      </root>
    </mxGraphModel>
  </diagram>
</mxfile>
